<svg width="172" height="70" viewBox="0 0 172 70" fill="none" xmlns="http://www.w3.org/2000/svg">
<path d="M20.3872 19.776C21.1552 16.3456 21.872 13.3248 24.4832 10.7648C26.2752 9.024 28.6304 8 31.1392 8C31.1392 8 32.112 8 32.7264 8.1024L32.5216 9.3824C32.5216 9.3824 31.1904 9.1776 30.3712 9.3824C29.296 9.6384 28.6816 10.0992 27.9136 10.816C26.5312 12.1984 26.0704 13.7856 25.2 17.5232L22.4352 29.9136H29.3472L28.9376 31.552H22.0256L17.6736 50.8032C16.9056 54.2336 16.1888 57.2544 13.5776 59.8144C11.7856 61.5552 9.4304 62.5792 6.8704 62.5792H6L6.4608 61.1456C6.7168 61.1456 7.024 61.1456 7.2288 61.0944C8.6112 60.8896 9.5328 60.4288 10.3008 59.4048C11.5808 57.7664 11.888 56.7424 12.8096 53.056L17.6224 31.6032H10.864L11.2736 29.9648H18.032L20.3872 19.776Z" fill="#AAD63E"/>
<path d="M114.288 37.7984H104.458C105.124 35.2896 107.172 31.296 110.807 31.296C114.749 31.2448 114.852 35.2384 114.288 37.7984ZM111.165 29.248C105.994 29.248 101.386 32.7296 100.311 38.208C98.4677 47.5264 105.38 49.2672 108.298 49.2672C110.807 49.2672 112.752 48.3968 114.237 47.2704L112.906 45.7344C111.831 46.4 110.653 46.8608 109.271 46.8608C104.458 46.8608 103.792 42.7648 104.048 39.8976H117.872C119.306 35.2896 117.77 29.248 111.165 29.248Z" fill="#AAD63E"/>
<path d="M54.5375 15.2704C54.5375 15.2704 48.7519 40.1536 48.2399 43.1232C47.4719 47.7312 49.8783 48.3968 51.1583 48.6016C53.5135 48.96 55.0495 48.5504 55.0495 48.5504L55.3055 47.0144C55.3055 47.0144 54.4351 47.3216 53.3599 47.1168C51.8751 46.8608 51.6703 45.9904 52.0287 43.4816C52.4895 40.5632 58.5823 15.2192 58.5823 15.2192H54.5375V15.2704Z" fill="#AAD63E"/>
<path d="M126.217 15.2704C126.217 15.2704 120.432 40.1536 119.92 43.1232C119.152 47.7312 121.558 48.3968 122.838 48.6016C125.193 48.96 126.729 48.5504 126.729 48.5504L126.985 47.0144C126.985 47.0144 126.115 47.3216 125.04 47.1168C123.555 46.8608 123.35 45.9904 123.708 43.4816C124.169 40.5632 130.262 15.2192 130.262 15.2192H126.217V15.2704Z" fill="#AAD63E"/>
<path d="M135.075 15.2704C135.075 15.2704 129.289 40.1536 128.777 43.1232C128.009 47.7312 130.365 48.3968 131.696 48.6016C134.051 48.96 135.587 48.5504 135.587 48.5504L135.843 47.0144C135.843 47.0144 134.973 47.3216 133.897 47.1168C132.413 46.8608 132.208 45.9904 132.566 43.4816C133.027 40.5632 139.12 15.2192 139.12 15.2192H135.075V15.2704Z" fill="#AAD63E"/>
<path d="M40.7136 40.512C40.2528 42.048 38.4096 47.4752 34.0576 47.4752C28.8864 47.4752 31.3952 39.6416 31.8048 38.1056C32.2144 36.6208 34.1088 31.0912 38.3072 31.0912C43.376 31.0912 41.1744 38.976 40.7136 40.512ZM43.0176 29.76L42.5568 31.7056H42.4032C41.3792 29.76 39.4848 29.1968 37.5392 29.1968C31.6512 29.1968 28.272 34.0608 27.2992 38.72C25.8656 45.376 27.9136 49.216 33.4432 49.216C35.8496 49.216 37.6928 48.6016 40.048 46.4512L41.072 48.6016H43.0176L47.1136 29.76H43.0176Z" fill="#AAD63E"/>
<path d="M71.7405 40.512C71.2797 42.048 69.4365 47.4752 65.0845 47.4752C59.9133 47.4752 62.4221 39.6416 62.8317 38.1056C63.2413 36.6208 65.1357 31.04 69.2829 31.04C74.4029 31.0912 72.2013 38.976 71.7405 40.512ZM74.0445 29.76L73.5837 31.7056H73.4813C72.4573 29.76 70.5629 29.1968 68.6173 29.1968C62.7293 29.1968 59.3501 34.0608 58.3773 38.72C56.9437 45.376 58.9917 49.216 64.5213 49.216C66.9277 49.216 68.7709 48.6016 71.1261 46.4512L72.1501 48.6016H74.0957L78.1917 29.76H74.0445Z" fill="#AAD63E"/>
<path d="M151.868 40.512C151.408 42.048 149.564 47.4752 145.212 47.4752C140.041 47.4752 142.55 39.6416 142.96 38.1056C143.369 36.6208 145.212 31.04 149.411 31.04C154.531 31.0912 152.329 38.976 151.868 40.512ZM154.172 29.76L153.712 31.7056H153.609C152.534 29.76 150.691 29.1968 148.745 29.1968C142.857 29.1968 139.529 34.0608 138.505 38.72C137.072 45.376 139.12 49.216 144.649 49.216C147.056 49.216 148.899 48.6016 151.254 46.4512L152.278 48.6016H154.224L158.32 29.76H154.172Z" fill="#AAD63E"/>
<path d="M93.1936 40.7168C92.784 42.2528 90.9408 47.68 87.0496 47.68C82.3904 47.68 83.9264 39.8464 84.336 38.3104C84.9504 35.8528 86.3328 31.3984 90.1728 31.3984C95.3952 31.3984 93.6032 39.1296 93.1936 40.7168ZM91.7088 29.3504C89.4048 29.3504 86.9984 30.3744 85.7696 32.1152H85.616L89.456 15.3216H85.1552C85.1552 15.3216 79.1648 41.2288 77.5264 48.8064H79.9328L81.8784 46.656C83.312 48.8064 84.848 49.4208 87.3056 49.4208C92.8352 49.4208 96.4704 45.5808 97.904 38.9248C98.928 34.2144 97.5968 29.3504 91.7088 29.3504Z" fill="#AAD63E"/>
<path d="M160.573 45.7856C160.573 44.352 161.751 43.1744 163.184 43.1744C164.618 43.1744 165.796 44.352 165.796 45.7856C165.796 47.2192 164.618 48.3968 163.184 48.3968C161.7 48.3968 160.573 47.2704 160.573 45.7856Z" fill="#AAD63E"/>
</svg>
