<svg width="180" height="46" viewBox="0 0 180 46" fill="none" xmlns="http://www.w3.org/2000/svg">
<g clip-path="url(#clip0_1035_81835)">
<path d="M26.871 0C14.2761 0 4.06543 10.2973 4.06543 23.0011C4.06543 35.7048 14.2761 46 26.871 46C39.4659 46 49.6766 35.7027 49.6766 23.0011C49.6766 10.2994 39.468 0 26.871 0ZM33.406 7.86758L33.3621 7.8971L32.7404 7.97942C30.7204 8.2581 30.599 8.52198 30.599 12.6974V27.0055C30.599 29.6654 30.4923 32.6418 29.7052 34.5712C28.2693 38.0818 25.3032 40.2582 21.9687 40.2582C20.426 40.2582 20.1058 39.6988 20.1058 39.2301C20.1058 38.4259 20.7735 37.2332 21.7007 37.2332C22.1822 37.2332 22.6616 37.3113 23.1807 37.4717C23.8024 37.6533 24.2796 37.7335 24.7234 37.7335C25.3262 37.7335 25.7595 37.4464 26.0526 36.8532C26.7705 35.3776 27.028 30.7715 27.028 27.2757V12.6974C27.028 8.34042 26.5989 8.15465 24.5873 7.97942L23.5763 7.89921L23.5302 7.86758C23.3691 7.7578 23.2895 7.53825 23.2916 7.24692L23.2979 7.03374H33.6342L33.6426 7.24692C33.6551 7.53192 33.5693 7.7578 33.4081 7.86758" fill="#171717"/>
<path d="M55.0962 26.0599C55.1651 25.9754 55.2573 25.9353 55.3599 25.9353C55.4687 25.9459 55.5609 25.9881 55.636 26.0599C55.7134 26.1295 55.7491 26.2203 55.7491 26.3279C55.7491 26.6509 55.816 26.9612 55.9377 27.2673C56.0612 27.5692 56.2346 27.8415 56.4504 28.08C56.6722 28.3185 56.9317 28.5064 57.2415 28.6521C57.5451 28.7957 57.8905 28.8674 58.2673 28.8674C58.5623 28.8674 58.8598 28.8104 59.1567 28.6964C59.4499 28.5824 59.7198 28.422 59.9607 28.213C60.2035 28.0019 60.3983 27.7507 60.547 27.4531C60.6976 27.1554 60.7751 26.8198 60.7855 26.4483V17.4787C60.7855 17.3817 60.825 17.2972 60.9024 17.2212C60.9799 17.1431 61.072 17.103 61.177 17.103C61.2816 17.103 61.3737 17.1431 61.4426 17.2212C61.5182 17.2972 61.5514 17.3838 61.5514 17.4787V26.2541C61.5514 26.7797 61.4531 27.2504 61.2607 27.6705C61.064 28.0842 60.8145 28.4368 60.509 28.7239C60.1992 29.0109 59.8495 29.2284 59.4499 29.3846C59.0565 29.5366 58.6631 29.6147 58.2716 29.6147C57.8591 29.6147 57.4572 29.5366 57.0657 29.3783C56.6784 29.2242 56.3249 29.0004 56.017 28.7112C55.7115 28.422 55.4687 28.0737 55.2739 27.6705C55.0877 27.2631 54.9912 26.8155 54.9912 26.3279C54.9912 26.2329 55.0292 26.1443 55.0981 26.0599" fill="#171717"/>
<path d="M58.2685 29.9419C57.81 29.9419 57.3643 29.8532 56.9415 29.6802C56.5186 29.5113 56.1313 29.2643 55.7945 28.9498C55.4699 28.6437 55.1958 28.2616 54.9801 27.8119C54.771 27.3517 54.666 26.8557 54.666 26.3258C54.666 26.1569 54.7287 25.9902 54.8504 25.8466C54.9801 25.6904 55.1621 25.606 55.363 25.606C55.5702 25.6229 55.7317 25.6968 55.8615 25.8192C56.0016 25.9459 56.0772 26.1232 56.0772 26.3237C56.0772 26.5939 56.1313 26.862 56.2425 27.1407C56.349 27.4003 56.5019 27.641 56.6944 27.8542C56.8849 28.059 57.1111 28.2215 57.3833 28.3502C57.8437 28.5677 58.4529 28.612 59.043 28.384C59.3048 28.2827 59.5433 28.1413 59.7505 27.9597C59.9643 27.7761 60.1296 27.5608 60.2593 27.3011C60.3867 27.0478 60.4537 26.7649 60.4641 26.4335V17.4745C60.4641 17.2909 60.5378 17.1199 60.6779 16.9827C60.9606 16.6998 61.4315 16.7104 61.6867 16.9996C61.8059 17.1199 61.8772 17.2888 61.8772 17.4745V26.2498C61.8772 26.8177 61.7684 27.3412 61.555 27.8035C61.3393 28.2595 61.0609 28.6479 60.7302 28.9582C60.3848 29.2769 60.0061 29.5134 59.5661 29.6844C59.1333 29.8511 58.6976 29.9356 58.2704 29.9356L58.2685 29.9419ZM55.3317 26.2604L55.3445 26.2709C55.336 26.2815 55.3151 26.3089 55.3151 26.3258C55.3151 26.7586 55.3987 27.166 55.5683 27.5312C55.7503 27.907 55.9703 28.2152 56.2382 28.4706C56.5143 28.7302 56.8345 28.9329 57.1842 29.0722C57.8561 29.3487 58.5911 29.3635 59.3319 29.0785C59.6939 28.9371 60.0061 28.7429 60.2883 28.4811C60.5587 28.2278 60.7867 27.9048 60.9668 27.527C61.1383 27.1533 61.2262 26.7227 61.2262 26.252L61.1992 17.4344C61.1654 17.426 61.155 17.426 61.1322 17.4492L61.1113 26.4462C61.0984 26.881 61.0063 27.2652 60.8371 27.5988C60.6718 27.9323 60.4475 28.2215 60.1733 28.4579C59.9115 28.688 59.6084 28.8696 59.2734 28.9983C58.5199 29.2896 57.7264 29.2368 57.1068 28.9456C56.7571 28.7809 56.4663 28.5698 56.215 28.2996C55.9679 28.0273 55.7755 27.7212 55.6396 27.3876C55.4951 27.0267 55.4258 26.6784 55.4258 26.3237C55.3906 26.2709 55.3654 26.2604 55.3317 26.2562V26.2604Z" fill="#171717"/>
<path d="M70.5877 29.6337C69.7377 29.6337 68.9362 29.469 68.1869 29.144C67.4371 28.8146 66.78 28.3629 66.2189 27.7929C65.6601 27.223 65.2144 26.5538 64.8899 25.7896C64.5635 25.0276 64.4043 24.2106 64.4043 23.3409C64.4043 22.4712 64.5635 21.6732 64.8899 20.9197C65.2144 20.1618 65.6582 19.5011 66.2189 18.9353C66.78 18.3717 67.4371 17.9242 68.1869 17.5928C68.9362 17.2656 69.7377 17.1009 70.5877 17.1009C71.4373 17.1009 72.2621 17.2656 73.0176 17.5928C73.7735 17.9221 74.433 18.3696 74.9918 18.9353C75.5548 19.5032 75.9986 20.1618 76.3208 20.9197C76.6477 21.6732 76.8106 22.4817 76.8106 23.3409C76.8106 24.2001 76.6477 25.0276 76.3208 25.7896C75.9962 26.5538 75.5529 27.2209 74.9918 27.7929C74.433 28.3629 73.7735 28.8146 73.0176 29.144C72.2621 29.469 71.4501 29.6337 70.5877 29.6337ZM70.5958 17.8165C69.8527 17.8165 69.1519 17.9664 68.4924 18.2641C67.8329 18.5638 67.2551 18.9607 66.7653 19.461C66.2778 19.9613 65.8863 20.546 65.5974 21.2152C65.3066 21.8801 65.164 22.5915 65.164 23.3409C65.164 24.0903 65.3066 24.8228 65.5974 25.5026C65.8863 26.1844 66.2797 26.7755 66.7653 27.2821C67.2551 27.7887 67.831 28.1877 68.4924 28.4811C69.1538 28.7703 69.8551 28.9181 70.5958 28.9181C71.337 28.9181 72.0592 28.7703 72.7206 28.4811C73.382 28.1877 73.9598 27.7887 74.4558 27.2821C74.9519 26.7755 75.3391 26.1844 75.6218 25.5026C75.9045 24.8249 76.0447 24.103 76.0447 23.3409C76.0447 22.5789 75.9045 21.8801 75.6218 21.2152C75.3391 20.546 74.9519 19.9613 74.4558 19.461C73.9598 18.9607 73.3801 18.5617 72.7206 18.2641C72.0569 17.9664 71.3518 17.8165 70.5958 17.8165Z" fill="#171717"/>
<path d="M70.5876 29.9609C69.6981 29.9609 68.8481 29.7878 68.0594 29.4458C67.2721 29.0996 66.575 28.6204 65.9892 28.0252C65.401 27.4256 64.9296 26.7185 64.5928 25.9205C64.2535 25.1268 64.0801 24.2592 64.0801 23.343C64.0801 22.4269 64.2516 21.5783 64.5928 20.7908C64.9277 20.0056 65.3986 19.3048 65.9892 18.7052C66.575 18.1142 67.2702 17.6413 68.057 17.2951C69.6477 16.6006 71.5673 16.6112 73.1457 17.2951C73.9368 17.6413 74.6362 18.1163 75.2221 18.7052C75.8127 19.3005 76.2835 20.0014 76.6204 20.793C76.9639 21.5867 77.1373 22.4437 77.1373 23.3451C77.1373 24.2465 76.9639 25.1226 76.6204 25.9226C76.2811 26.7227 75.8103 27.4298 75.2221 28.0273C74.6362 28.6246 73.9368 29.1017 73.1476 29.4479C72.3503 29.792 71.4899 29.9651 70.5876 29.9651V29.9609ZM70.5876 17.4302C69.7884 17.4302 69.0244 17.5864 68.3164 17.8946C67.607 18.207 66.977 18.6356 66.4496 19.1675C65.9179 19.7058 65.4927 20.3412 65.1895 21.0505C64.8835 21.7556 64.731 22.5261 64.731 23.343C64.731 24.16 64.8859 24.9495 65.1895 25.6609C65.495 26.3828 65.9198 27.0225 66.4515 27.5629C66.9789 28.1012 67.6089 28.5318 68.3188 28.8442C69.7442 29.4627 71.4751 29.4522 72.8925 28.8442C73.6061 28.5339 74.2362 28.1033 74.7636 27.565C75.2952 27.0288 75.7181 26.3891 76.026 25.663C76.3339 24.9431 76.4907 24.1642 76.4907 23.343C76.4907 22.5218 76.3358 21.764 76.0279 21.0526C75.7224 20.337 75.2976 19.7037 74.7659 19.1675C74.2385 18.6356 73.6085 18.207 72.8925 17.8946C72.1788 17.5864 71.4043 17.4302 70.5899 17.4302H70.5876ZM70.5961 29.2474C69.8155 29.2474 69.0638 29.0912 68.3625 28.783C67.6636 28.4727 67.0483 28.0441 66.5332 27.5122C66.0163 26.9739 65.5996 26.3406 65.2983 25.6334C64.9947 24.9241 64.8398 24.1536 64.8398 23.343C64.8398 22.5324 64.9947 21.783 65.3002 21.0864C65.6019 20.3877 66.0182 19.7649 66.5351 19.2351C67.0459 18.7115 67.6593 18.2851 68.3587 17.9685C69.7694 17.331 71.4609 17.3416 72.8526 17.9685C73.552 18.2851 74.1673 18.7094 74.6861 19.233C75.2054 19.7544 75.6221 20.3792 75.9215 21.0906C76.2184 21.7915 76.3714 22.5493 76.3714 23.3451C76.3714 24.141 76.2208 24.9199 75.9234 25.6334C75.624 26.3532 75.2097 26.9866 74.6885 27.5164C74.1673 28.0483 73.5496 28.4748 72.8526 28.7851C72.1475 29.0933 71.3896 29.2495 70.5961 29.2495V29.2474ZM70.5961 18.1437C69.9034 18.1437 69.2396 18.2851 68.6243 18.5638C67.9985 18.8467 67.4521 19.2267 66.9979 19.6932C66.5375 20.166 66.1669 20.7212 65.8946 21.3482C65.6248 21.9625 65.4889 22.6337 65.4889 23.343C65.4889 24.0523 65.6248 24.7468 65.8946 25.3738C66.165 26.0092 66.5351 26.5749 66.9979 27.0562C67.454 27.5291 68.0004 27.9091 68.6224 28.1835C69.8696 28.7302 71.3582 28.7218 72.5907 28.1835C73.2108 27.9091 73.761 27.5291 74.2238 27.0541C74.6928 26.577 75.0505 26.0282 75.3204 25.378C75.5841 24.7447 75.7181 24.0608 75.7181 23.343C75.7181 22.6253 75.5841 21.9667 75.3204 21.3461C75.0524 20.7127 74.6842 20.1576 74.2238 19.6953C73.761 19.2288 73.2084 18.8467 72.5846 18.5638C71.9674 18.2851 71.2974 18.1437 70.5918 18.1437H70.5961Z" fill="#171717"/>
<path d="M85.6878 29.6147C84.8397 29.6147 84.0382 29.4543 83.2784 29.1228C82.5229 28.7957 81.8592 28.346 81.298 27.7739C80.7269 27.2018 80.2831 26.5369 79.9562 25.7812C79.6322 25.0234 79.4688 24.2191 79.4688 23.3578C79.4688 22.4965 79.6322 21.6922 79.9562 20.926C80.2831 20.1639 80.7245 19.5032 81.298 18.9353C81.8611 18.3717 82.5229 17.9242 83.2784 17.5948C84.0382 17.2677 84.8397 17.103 85.6878 17.103C86.4747 17.103 87.2116 17.2529 87.9148 17.5505C88.6161 17.8503 89.2689 18.2514 89.8743 18.7665C89.9579 18.8361 89.9997 18.9332 89.9997 19.0514C89.9997 19.1591 89.9622 19.2499 89.8909 19.3237C89.7968 19.3934 89.7047 19.4272 89.6106 19.4272C89.5222 19.4272 89.4429 19.3976 89.3569 19.3385C88.8527 18.8509 88.2811 18.473 87.6492 18.2112C87.0168 17.9516 86.364 17.8186 85.6878 17.8186C84.9343 17.8186 84.2244 17.9664 83.5611 18.2577C82.9016 18.549 82.322 18.948 81.8278 19.4546C81.3294 19.9613 80.9422 20.5523 80.6556 21.2236C80.3753 21.897 80.2309 22.6084 80.2309 23.3599C80.2309 24.1114 80.3729 24.8249 80.6556 25.4983C80.9422 26.1717 81.3294 26.7607 81.8278 27.2694C82.322 27.7739 82.9016 28.175 83.5611 28.4663C84.2244 28.7577 84.9343 28.9033 85.6878 28.9033C86.364 28.9033 87.0106 28.7703 87.6426 28.5085C88.2664 28.2489 88.8337 27.8795 89.3426 27.4003C89.4158 27.3285 89.4975 27.2927 89.5916 27.2927C89.6985 27.2927 89.7945 27.337 89.8762 27.4193C89.9494 27.5164 89.9831 27.6093 89.9831 27.7043C89.9831 27.814 89.9432 27.9027 89.8572 27.9745C89.2794 28.5085 88.6351 28.9181 87.9276 29.1988C87.2178 29.4775 86.477 29.6189 85.6897 29.6189" fill="#171717"/>
<path d="M85.6881 29.9419C84.7944 29.9419 83.9425 29.7667 83.1509 29.4247C82.3555 29.0785 81.6547 28.6015 81.0684 28.0061C80.4782 27.4172 80.005 26.7122 79.6596 25.9142C79.3184 25.1141 79.1445 24.255 79.1445 23.36C79.1445 22.4649 79.3184 21.6078 79.6577 20.7993C80.0007 19.9972 80.4759 19.2921 81.0703 18.7031C81.6566 18.1163 82.3555 17.6413 83.1509 17.2951C83.9529 16.951 84.8049 16.7758 85.6881 16.7758C86.5211 16.7758 87.2912 16.932 88.041 17.2508C88.7799 17.5653 89.4664 17.9918 90.0817 18.5174C90.2385 18.6483 90.3226 18.834 90.3226 19.0515C90.3226 19.2414 90.2533 19.4145 90.1216 19.5518L90.0798 19.5876C89.791 19.8008 89.4726 19.8135 89.1752 19.6109L89.1315 19.575C88.6563 19.1169 88.1161 18.7601 87.5236 18.5132C86.2702 17.996 84.8657 18.0403 83.6892 18.5575C83.0673 18.8319 82.519 19.2119 82.0586 19.6826C81.5958 20.1534 81.2252 20.7149 80.9534 21.3524C80.6897 21.9857 80.5557 22.6612 80.5557 23.3578C80.5557 24.0545 80.6897 24.7363 80.9534 25.3696C81.2275 26.0134 81.5896 26.5602 82.0586 27.0372C82.5251 27.5122 83.0734 27.8922 83.6911 28.1645C84.3088 28.4368 84.9807 28.574 85.6881 28.574C86.3243 28.574 86.923 28.4537 87.5174 28.2025C88.1014 27.9597 88.6397 27.6072 89.1186 27.1575C89.389 26.8916 89.8304 26.9064 90.1045 27.1871C90.2452 27.3687 90.3036 27.5312 90.3036 27.7022C90.3036 27.9091 90.22 28.0885 90.0627 28.2215C89.4641 28.7724 88.7818 29.2052 88.041 29.4986C87.2936 29.792 86.5025 29.9398 85.6858 29.9398L85.6881 29.9419ZM85.6881 17.4281C84.8928 17.4281 84.1245 17.5843 83.4065 17.8946C82.6886 18.2071 82.0562 18.6356 81.5269 19.1676C80.9847 19.7059 80.568 20.3223 80.254 21.0569C79.9485 21.781 79.7936 22.5578 79.7936 23.36C79.7936 24.1621 79.9485 24.9368 80.254 25.6545C80.5638 26.3765 80.9928 27.0119 81.5269 27.5438C82.0562 28.0821 82.6886 28.5128 83.4084 28.8252C84.1183 29.1334 84.8866 29.2896 85.69 29.2896C86.4374 29.2896 87.1302 29.1608 87.8106 28.8927C88.4743 28.6289 89.0896 28.2405 89.6399 27.7317C89.6589 27.6958 89.6589 27.6705 89.6189 27.6177H89.5919C89.0288 28.1413 88.424 28.536 87.7688 28.8083C87.0926 29.0912 86.4122 29.2284 85.69 29.2284C84.8947 29.2284 84.1349 29.0722 83.4336 28.764C82.7427 28.46 82.1255 28.0336 81.6 27.4974C81.0807 26.9675 80.6645 26.3385 80.359 25.625C80.0596 24.9094 79.9086 24.1473 79.9086 23.3578C79.9086 22.5683 80.0596 21.8105 80.359 21.0949C80.6645 20.3792 81.0807 19.7481 81.6 19.2203C82.1194 18.6905 82.7347 18.2641 83.4336 17.9559C84.7711 17.369 86.3581 17.3226 87.7749 17.9073C88.4321 18.1817 89.0331 18.5765 89.5605 19.0789C89.5942 19.0979 89.6066 19.0979 89.6128 19.0979C89.6275 19.0979 89.6441 19.0916 89.6589 19.0831L89.665 19.0156C89.0977 18.5322 88.4677 18.1395 87.7897 17.8503C87.1221 17.5653 86.4332 17.4281 85.6881 17.4281Z" fill="#171717"/>
<path d="M93.0977 29.6147C93.0036 29.6147 92.9181 29.5809 92.8425 29.5091C92.7632 29.4373 92.7275 29.355 92.7275 29.2601V17.4598C92.7275 17.3647 92.7608 17.2803 92.8425 17.2064C92.9181 17.1368 93.0036 17.0988 93.0977 17.0988C93.1922 17.0988 93.282 17.1368 93.3657 17.2064C93.4498 17.2803 93.4873 17.3647 93.4873 17.4598V29.2601C93.4873 29.355 93.4498 29.4373 93.3657 29.5091C93.2844 29.5788 93.1941 29.6147 93.0977 29.6147ZM100.746 29.6147C100.627 29.6147 100.537 29.5809 100.464 29.5091L94.5967 23.4823C94.5212 23.4338 94.4898 23.3493 94.4898 23.2332C94.4898 23.1256 94.5212 23.0369 94.5967 22.9651L99.9867 17.388C100.052 17.3162 100.142 17.2803 100.25 17.2803C100.359 17.2803 100.441 17.3162 100.508 17.388C100.571 17.4598 100.604 17.5484 100.604 17.6582C100.604 17.7405 100.575 17.8228 100.516 17.9073L95.3774 23.2164L100.995 28.9899C101.056 29.0869 101.083 29.1756 101.083 29.2601C101.083 29.3762 101.05 29.4669 100.979 29.526C100.91 29.5851 100.83 29.6147 100.746 29.6147Z" fill="#171717"/>
<path d="M100.747 29.9419C100.546 29.9419 100.376 29.8765 100.24 29.7477L94.3856 23.7335C94.2787 23.6512 94.1657 23.5013 94.1657 23.2332C94.1657 22.9652 94.2806 22.8153 94.3771 22.7266L99.7566 17.16C99.9951 16.9003 100.485 16.8856 100.747 17.1642C100.868 17.3015 100.931 17.4703 100.931 17.6582C100.931 17.8081 100.881 17.9559 100.782 18.0951L100.749 18.1353L95.832 23.2143L101.27 28.8146C101.362 28.9603 101.408 29.1102 101.408 29.258C101.408 29.5303 101.289 29.6886 101.188 29.7751C101.058 29.8849 100.906 29.9398 100.747 29.9398V29.9419ZM100.695 29.2811C100.695 29.2811 100.705 29.2896 100.747 29.2896C100.751 29.2896 100.755 29.2896 100.772 29.2769C100.763 29.2474 100.753 29.2221 100.738 29.1925L94.9254 23.2185L100.265 17.7025C100.278 17.6814 100.282 17.6666 100.282 17.6603C100.282 17.6223 100.274 17.6139 100.269 17.6075H100.265L100.221 17.6181L94.8313 23.1952L94.8228 23.2459L94.8313 23.2544L100.696 29.279L100.695 29.2811ZM93.098 29.9419C92.9203 29.9419 92.7569 29.8744 92.6229 29.7498C92.4827 29.6231 92.4053 29.4522 92.4053 29.2601V17.4598C92.4053 17.2677 92.4808 17.0967 92.6272 16.9658C92.8909 16.7209 93.2867 16.7146 93.5755 16.9574C93.7323 17.0945 93.8141 17.2677 93.8141 17.4598V29.2601C93.8141 29.4522 93.7323 29.6252 93.5774 29.7583C93.4373 29.8786 93.2719 29.9419 93.1004 29.9419H93.098ZM93.098 17.4281L93.0519 17.4619V29.2601L93.098 29.2875C93.1066 29.2875 93.1232 29.2875 93.1546 29.2601L93.1631 17.4598C93.1398 17.445 93.117 17.4281 93.098 17.4281Z" fill="#171717"/>
<path d="M110.319 28.7957C110.39 28.8674 110.428 28.9519 110.428 29.0468C110.428 29.1524 110.39 29.2432 110.319 29.3192C110.25 29.3994 110.16 29.4374 110.054 29.4374H104.418C104.31 29.4374 104.22 29.3994 104.153 29.3192C104.08 29.2432 104.046 29.1503 104.046 29.0468V17.6603C104.046 17.5505 104.083 17.4619 104.161 17.3901C104.241 17.3183 104.331 17.2845 104.437 17.2845H109.875C109.982 17.2845 110.07 17.3183 110.143 17.3901C110.213 17.4619 110.25 17.5505 110.25 17.6603C110.25 17.7701 110.213 17.8566 110.143 17.9284C110.072 17.9981 109.984 18.034 109.875 18.034H104.81V22.8406H109.151C109.26 22.8406 109.348 22.8765 109.425 22.9483C109.503 23.0201 109.54 23.1087 109.54 23.2164C109.54 23.324 109.503 23.4127 109.425 23.4845C109.348 23.5563 109.26 23.59 109.151 23.59H104.81V28.6859H110.054C110.16 28.6859 110.25 28.7239 110.319 28.7957Z" fill="#171717"/>
<path d="M110.05 29.7646H104.416C104.211 29.7646 104.035 29.6844 103.905 29.5345C103.788 29.4121 103.719 29.239 103.719 29.0469V17.6603C103.719 17.4598 103.794 17.2825 103.941 17.1495C104.083 17.0207 104.248 16.9574 104.437 16.9574H109.875C110.067 16.9574 110.239 17.0271 110.371 17.1579C110.505 17.2973 110.574 17.4682 110.574 17.6603C110.574 17.8524 110.505 18.0213 110.377 18.1564C110.232 18.2958 110.063 18.3633 109.877 18.3633H105.136V22.5155H109.151C109.337 22.5155 109.502 22.5789 109.642 22.7076C109.789 22.8449 109.866 23.0201 109.866 23.2185C109.866 23.4169 109.789 23.5963 109.644 23.7294C109.506 23.856 109.341 23.9215 109.152 23.9215H105.138V28.3629H110.057C110.247 28.3629 110.419 28.4326 110.553 28.5656C110.685 28.7007 110.754 28.8674 110.754 29.049C110.754 29.2305 110.687 29.4079 110.559 29.5451C110.432 29.6886 110.256 29.7667 110.055 29.7667L110.05 29.7646ZM104.434 17.6097C104.407 17.6097 104.395 17.6139 104.373 17.6329L104.365 29.0469L104.393 29.106L110.049 29.1102C110.095 29.0785 110.098 29.0638 110.098 29.0469L110.317 28.7957L110.088 29.0279C110.088 29.0279 110.074 29.0152 110.05 29.0152H104.485V23.2671H109.148C109.176 23.2671 109.186 23.2607 109.205 23.2459L109.422 22.9504L109.205 23.1932C109.184 23.1742 109.171 23.1699 109.148 23.1699H104.485V17.7089H109.875L109.925 17.6624L109.875 17.6139H104.437L104.434 17.6097Z" fill="#171717"/>
<path d="M120.619 17.2656C120.668 17.1685 120.741 17.1094 120.839 17.0861C120.942 17.0651 121.04 17.0798 121.132 17.141C121.228 17.2001 121.283 17.2782 121.302 17.3733C121.323 17.4703 121.306 17.559 121.256 17.6435L117.444 25.2935V29.2622C117.444 29.3572 117.411 29.4395 117.333 29.5134C117.256 29.583 117.164 29.6189 117.057 29.6189C116.961 29.6189 116.877 29.583 116.799 29.5134C116.724 29.4416 116.684 29.3593 116.684 29.2622V25.2935L112.927 17.6772C112.864 17.5675 112.852 17.4724 112.889 17.3838C112.927 17.2951 112.981 17.2234 113.061 17.1769C113.136 17.1305 113.226 17.1115 113.325 17.1241C113.425 17.1347 113.513 17.1833 113.582 17.2677L117.113 24.4196L120.622 17.2677L120.619 17.2656Z" fill="#171717"/>
<path d="M117.055 29.9419C116.882 29.9419 116.723 29.8786 116.582 29.754C116.396 29.5725 116.358 29.3867 116.358 29.2579V25.3653L112.635 17.8165C112.502 17.5843 112.534 17.3795 112.586 17.2529C112.657 17.0861 112.76 16.9658 112.896 16.8877C113.028 16.8054 113.195 16.7716 113.365 16.7948C113.547 16.8159 113.71 16.9067 113.83 17.0544L113.869 17.1157L117.107 23.6765L120.327 17.1157C120.417 16.9341 120.566 16.8117 120.758 16.7653C120.963 16.723 121.145 16.7589 121.307 16.8623C121.472 16.9637 121.581 17.1178 121.618 17.3035C121.656 17.4766 121.625 17.654 121.531 17.8102L117.765 25.3674V29.2579C117.765 29.4479 117.691 29.6168 117.549 29.7476C117.409 29.8743 117.24 29.9397 117.053 29.9397L117.055 29.9419ZM113.262 17.4449C113.25 17.4449 113.239 17.445 113.231 17.4513C113.208 17.4661 113.193 17.4935 113.187 17.5104L117.009 25.2133V29.2579L117.058 29.2853C117.087 29.2853 117.101 29.2769 117.116 29.2643L117.12 25.2112L120.968 17.4914L120.987 17.4323C120.945 17.4006 120.932 17.3964 120.907 17.4027L120.624 17.2613L120.915 17.407L117.116 25.1479L113.317 17.4513C113.317 17.4513 113.302 17.445 113.29 17.4428C113.281 17.4428 113.275 17.4428 113.266 17.4428L113.262 17.4449Z" fill="#171717"/>
<path d="M125.846 29.4374H125.051V16.7842H127.261C128.241 16.7842 129.191 16.8518 129.976 17.5252C130.74 18.1775 131.106 19.1338 131.106 20.1259C131.106 21.0315 130.759 22.0384 130.062 22.6232C129.292 23.2945 128.243 23.4296 127.263 23.4296H125.846V29.4374ZM127.297 22.6781C128.111 22.6781 128.844 22.5767 129.495 21.9878C130.041 21.4854 130.302 20.8289 130.302 20.0921C130.302 19.3026 129.991 18.5131 129.356 18.0466C128.726 17.559 127.929 17.5442 127.165 17.5442H125.846V22.6802H127.297V22.6781Z" fill="#171717"/>
<path d="M135.695 28.6838H138.891V29.4374H134.901V16.7864H135.695V28.6838Z" fill="#171717"/>
<path d="M143.566 25.2766L141.887 29.4373H141.07L146.329 16.3684L151.572 29.4373H150.752L149.073 25.2766H143.566ZM146.329 18.4139L143.867 24.5231H148.774L146.327 18.4139H146.329Z" fill="#171717"/>
<path d="M162.683 28.6838V29.4374H153.85L161.502 17.5421H154.582V16.7864H162.899L155.244 28.6838H162.683Z" fill="#171717"/>
<path d="M167.675 25.2766L165.992 29.4373H165.176L170.436 16.3684L175.673 29.4373H174.859L173.176 25.2766H167.673H167.675ZM170.438 18.4139L167.972 24.5231H172.883L170.438 18.4139Z" fill="#171717"/>
</g>
<defs>
<clipPath id="clip0_1035_81835">
<rect width="172" height="46" fill="white" transform="translate(4)"/>
</clipPath>
</defs>
</svg>
