<svg width="74" height="70" viewBox="0 0 74 70" fill="none" xmlns="http://www.w3.org/2000/svg">
<g clip-path="url(#clip0_1035_81816)">
<path fill-rule="evenodd" clip-rule="evenodd" d="M20.8103 4.67273H7.63706C6.99386 4.67273 6.48713 5.22127 6.53766 5.86269L9.90863 48.3344H20.8103V4.67273ZM66.0046 4.67273H52.8313V48.3344H63.7328L67.1041 5.86269C67.1547 5.22127 66.6478 4.67273 66.0046 4.67273Z" fill="#F40027"/>
<path fill-rule="evenodd" clip-rule="evenodd" d="M66.5688 2.97919C67.8949 2.97919 68.9393 4.10742 68.8347 5.42656L64.1136 64.9317C64.02 66.1114 63.0334 67.0209 61.8477 67.0209H11.7945C10.6086 67.0209 9.622 66.1114 9.52859 64.9317L4.80751 5.42656C4.70272 4.10742 5.74732 2.97919 7.07339 2.97919H66.5688ZM66.5688 2.17853H7.07339C6.21775 2.17853 5.39449 2.53883 4.81427 3.1669C4.23531 3.79338 3.94208 4.64013 4.00952 5.4899L8.73059 64.9949C8.85621 66.5799 10.202 67.8216 11.7945 67.8216H61.8477C63.4402 67.8216 64.786 66.5799 64.9118 64.9949L69.6328 5.4899C69.7001 4.64013 69.4067 3.79338 68.8279 3.1669C68.2479 2.53883 67.4244 2.17853 66.5688 2.17853Z" fill="#231F20"/>
<path fill-rule="evenodd" clip-rule="evenodd" d="M43.0076 55.2556C42.8292 55.2556 42.6904 55.1006 42.71 54.9234C42.7133 54.8934 42.7139 54.8838 42.7139 54.8836C42.7626 54.1384 42.5073 53.7014 41.6705 53.7014L39.0815 53.7043L38.3896 56.8587L42.0958 56.8589C42.2865 56.8589 42.4281 57.0354 42.387 57.2215L42.0258 58.8481C41.9958 58.9846 41.8748 59.0814 41.7355 59.0814H37.8973C37.8973 59.0814 37.4708 61.014 37.4555 61.0974C37.3128 61.7213 37.7391 62.0453 38.025 62.1844C38.0396 62.1913 38.0542 62.1983 38.069 62.2049C38.1916 62.2597 38.2588 62.3929 38.2296 62.5242L38.0325 63.4133C38.0024 63.5489 37.882 63.6457 37.743 63.6457H33.2298C33.0403 63.6457 32.8995 63.4704 32.9404 63.2856L34.9065 54.3781C35.1069 53.5922 34.6469 53.2725 34.3165 53.1465C34.3053 53.1424 34.2939 53.1387 34.2831 53.1344C34.1354 53.0819 34.05 52.9276 34.0841 52.7746L34.2576 51.9905C34.2907 51.8418 34.4227 51.7357 34.5752 51.7357H44.61C44.8004 51.7357 44.942 51.9122 44.9009 52.0982L44.2517 55.0229C44.2214 55.1588 44.101 55.2556 43.9617 55.2556H43.0076ZM27.9149 51.9889C27.9475 51.8411 28.0786 51.7357 28.23 51.7357H33.1371C33.3283 51.7357 33.4703 51.9128 33.4288 52.0996L33.2625 52.8536C33.2338 52.9816 33.128 53.0727 32.9977 53.0867C32.9751 53.089 32.9609 53.0904 32.9607 53.0904C32.591 53.1397 31.9232 53.26 31.3761 53.6881L27.297 57.0804C27.2966 57.0808 27.2966 57.0815 27.2968 57.0818L30.436 61.3302C31.0443 62.1123 31.3445 62.2541 31.9562 62.2636C32.1569 62.2673 32.301 62.4555 32.2576 62.6513L32.0862 63.4151C32.0562 63.55 31.9366 63.6457 31.7985 63.6457H29.354C26.6469 63.646 25.8996 62.4588 23.6446 58.3362C23.644 58.3355 23.6428 58.3357 23.6426 58.3364L22.9843 61.3437C22.8843 61.8111 23.2757 62.0586 23.5625 62.1751C23.575 62.1803 23.5874 62.1849 23.599 62.1896C23.736 62.2433 23.8138 62.3888 23.7817 62.5322L23.5864 63.414C23.5561 63.5493 23.4362 63.6457 23.2976 63.6457H17.6328C17.4335 63.6457 17.2859 63.4614 17.3287 63.2669L17.4955 62.5134C17.5255 62.3765 17.6396 62.2742 17.7785 62.2591C17.7842 62.2582 17.7897 62.2577 17.7951 62.2572C18.3143 62.1972 18.8589 61.8691 19.195 60.263L20.4796 54.3818C20.6449 53.5984 20.2531 53.3004 19.9152 53.168C19.9124 53.1668 19.8925 53.1598 19.8615 53.1493C19.7067 53.0965 19.616 52.9355 19.6516 52.7757L19.8261 51.99C19.8588 51.8414 19.9909 51.7357 20.1428 51.7357H25.5309C25.7193 51.7357 25.8595 51.9101 25.8188 52.0942L25.6471 52.8695C25.6222 52.9828 25.538 53.0741 25.4272 53.1084C25.4138 53.1125 25.4 53.1168 25.3861 53.121C25.134 53.2031 24.7351 53.4098 24.6126 53.9119L23.8949 57.1849C23.8947 57.1861 23.896 57.1868 23.8969 57.1861L28.0761 53.7127C28.3268 53.5059 28.263 53.2296 27.9754 53.1189C27.9754 53.1189 27.9747 53.1187 27.9737 53.1184C27.8103 53.0689 27.7126 52.9018 27.7496 52.7351L27.9149 51.9889ZM56.0681 51.9825C56.2472 52.0316 56.3558 52.2133 56.3154 52.3949L55.6797 55.2558C55.6494 55.3923 55.5284 55.4892 55.3888 55.4892H54.4844C54.3136 55.4892 54.1776 55.3458 54.1865 55.1754C54.1886 55.1382 54.189 55.1231 54.189 55.1222C54.2324 54.1895 53.6433 53.492 52.3101 53.4922C50.0939 53.4926 48.4819 55.3111 48.2707 57.7003C48.0525 60.1673 49.7766 61.6008 52.1639 61.6004C53.3878 61.6003 54.3568 61.3642 54.9 61.1921C55.1156 61.124 55.3258 61.3108 55.2834 61.5332L55.0028 63.0114C54.979 63.1375 54.8879 63.2402 54.7655 63.2792C54.2764 63.4348 52.9028 63.8008 50.8004 63.8012C45.8055 63.8021 43.7788 60.9289 44.0926 58.0001C44.3716 55.3919 46.0971 51.55 52.9015 51.5487C54.2047 51.5485 55.2471 51.7573 56.0681 51.9825ZM47.4828 21.9505C47.2136 23.3822 46.9126 24.1007 46.7192 24.9843C46.5185 25.9027 46.124 27.2455 45.7411 27.2802C45.3541 27.3966 45.1986 26.9493 44.9504 27.2804C44.8024 27.4776 44.6878 27.7379 44.5559 27.906C44.4718 28.016 44.3887 28.2611 44.3875 28.3949C44.3875 28.6533 44.3732 29.4879 44.1419 30.5825C43.7934 32.2342 43.1596 33.4375 42.5013 34.1971C41.2403 35.6514 40.0592 35.8856 39.9187 35.9598C39.7381 36.0555 39.4644 35.9989 39.3749 35.9561C39.2842 35.9148 39.2148 35.8059 39.0588 35.6532C38.8979 35.5029 38.842 35.7317 38.836 35.7901C38.8298 35.8445 38.9177 36.5327 38.7422 36.8441C38.3641 37.5138 38.0005 37.572 37.798 38.4061C37.7298 38.6877 37.7773 39.1132 37.4409 38.9205C36.6185 38.4507 35.4403 37.1788 35.1964 35.9457C35.1222 35.5701 35.1916 35.1513 35.4205 34.4373C35.5529 34.0183 35.6469 33.5516 35.6469 33.2829C35.6469 32.8062 35.4606 32.4022 35.6469 32.3607C35.9922 32.284 36.1495 33.1779 36.3098 33.0852C36.5888 32.9247 36.3817 31.9808 36.3817 31.9808C36.3817 31.9808 36.2671 31.7125 35.778 31.5978C35.4965 31.5319 35.4081 31.3211 35.7083 31.1738C35.9323 31.064 36.1926 30.9195 36.4959 30.9647C38.5236 31.2521 39.107 30.8446 39.927 30.6235C40.0881 30.5808 40.1829 30.5619 40.309 30.6215C40.4343 30.6797 40.7709 30.8638 40.8393 31.0368C40.9088 31.2081 40.8369 31.881 40.9444 32.3874C41.054 32.8959 41.4113 32.4338 41.5001 32.2328C41.5899 32.0333 41.6819 31.5415 41.7004 31.4165C41.7202 31.2921 41.8244 30.769 42.0121 30.6131C42.3837 30.3048 42.5144 29.8995 42.5742 29.7409C42.6358 29.5822 42.7327 29.0929 42.7153 28.3782C42.6977 27.6649 42.5687 27.5875 42.3963 27.4341C42.2262 27.2813 42.0218 27.3108 41.5873 26.9132C41.1999 26.5577 40.8809 25.9833 40.6007 25.6218C40.3195 25.2613 39.8536 24.8738 39.3217 24.7437C38.7921 24.616 39.012 25.1046 39.0404 25.2419C39.0627 25.3387 39.1874 25.7723 39.0105 25.9154C38.8376 26.0577 37.766 26.7781 36.8101 26.5283C35.6711 26.231 35.2775 25.5969 35.254 24.9843C35.2376 24.5501 35.4456 24.1315 35.705 23.634C35.857 23.3431 35.9182 22.8574 35.9792 22.3916C36.0278 22.019 36.1276 21.48 36.2088 21.2884C36.2671 21.1502 36.4045 21 36.7135 21.0176C37.019 21.0347 37.2195 21.1868 37.2754 21.4505C37.4734 22.3668 37.7964 22.5983 37.9058 22.6725C38.0165 22.7463 38.2232 22.5983 38.3038 22.5446C38.3853 22.4917 38.5926 22.2821 38.5275 22.1697C38.4286 21.9955 38.3739 21.8911 38.352 21.7889C38.3143 21.6146 38.5325 21.6357 38.5766 21.6706C38.9337 21.9519 39.2703 21.9766 39.8874 22.0795C40.9667 22.2594 41.1215 21.8615 41.863 21.9902C41.9591 22.0069 42.142 22.0873 42.2018 22.1985C42.2509 22.2937 42.3411 22.5127 42.4317 22.5512C42.5215 22.586 42.7416 22.5996 42.8552 22.62C43.0121 22.6465 43.293 22.6289 43.2459 22.9189C43.1251 23.6961 42.2281 23.9105 41.809 23.9826C41.6358 24.0123 41.5565 24.0265 41.5284 24.0512C41.4376 24.131 41.4342 24.3744 41.5387 24.5316C41.6127 24.6423 41.9517 24.6493 42.4159 24.5601C42.9 24.4672 43.3649 24.2336 43.732 23.6614C44.1209 23.0554 44.3348 21.7211 44.38 21.4719C44.4239 21.2229 44.5237 20.8061 44.6609 20.7207C44.7965 20.6354 45.4281 20.4436 45.5171 20.4593C45.6231 20.4776 45.7002 20.5287 45.7502 20.773C45.7998 21.0198 45.7071 22.49 45.7053 22.7116C45.7027 22.9483 45.824 22.9462 45.8916 22.915C46.039 22.847 46.4322 22.5851 46.5211 22.2823C46.587 22.0576 46.3975 21.7302 46.4927 21.4194C46.6409 20.9347 46.7868 20.8057 46.8878 20.8155C47.504 20.8742 47.6301 21.1443 47.4828 21.9273M38.7479 29.8548C38.5188 29.9386 37.8572 30.0925 37.5368 30.1121C37.2135 30.1302 36.1886 30.1996 36.0166 30.1915C35.8054 30.1792 35.5202 30.0762 35.2883 29.8642C35.2416 29.8212 35.1908 29.6735 35.38 29.67C35.7314 29.6637 36.3249 29.4762 38.3686 29.6491C38.5871 29.6673 38.6905 29.6767 38.7422 29.6817C38.7958 29.6872 38.9767 29.774 38.7479 29.8548ZM33.7217 29.0248C32.7269 29.0122 32.2666 28.6415 32.1955 28.5309C32.1271 28.4236 32.2419 28.3405 32.3458 28.307C32.5807 28.2327 32.9981 28.0217 33.1675 27.893C33.3376 27.7661 33.8064 27.4742 34.043 27.3219C34.1544 27.2491 34.7941 26.9706 35.1679 27.2313C35.7292 27.6229 36.2536 27.8846 37.2135 27.8259C37.8311 27.7882 37.8172 27.2898 38.3197 27.1311C38.7737 26.9881 38.8609 26.8767 39.0031 26.7934C39.1863 26.7568 39.3217 26.7105 39.5207 26.8957C39.7728 27.1306 39.8641 27.3155 40.1559 27.6453C40.5553 28.0962 40.9958 28.3065 41.1323 28.3332C41.2679 28.361 41.3656 28.4713 41.367 28.5168C41.3682 28.5617 41.3125 28.7019 40.9097 28.817C39.5653 29.2022 38.1095 28.9552 37.3601 28.6558C36.9797 28.5038 36.61 28.4624 36.1926 28.6673C35.7719 28.8736 34.6501 29.0362 33.7217 29.0248ZM33.2438 34.5545C32.4818 34.578 30.4897 33.3758 29.6207 29.9634C29.3953 29.0855 29.9486 28.3732 30.292 28.251C30.495 28.1764 30.6016 28.153 30.6701 28.1439C30.7406 28.135 31.0875 28.1371 31.0754 28.5289C31.0635 28.8465 31.3272 31.4928 32.0179 32.4506C32.1892 32.6881 32.3478 32.6968 32.4264 32.487C32.4987 32.2922 32.6186 32.0408 32.6572 31.9453C32.6855 31.8766 32.9367 31.4921 33.0114 31.7839C33.1698 32.4038 33.5411 33.6793 33.6973 34.0087C33.9562 34.5549 33.5294 34.5458 33.2438 34.5545ZM29.2396 24.3713C29.186 24.1415 29.2883 23.7975 29.8296 24.1447C29.9162 24.2002 30.1705 24.3156 30.453 24.3968C30.6242 24.4461 30.7351 24.374 30.7835 24.2496C30.8336 24.1263 30.974 23.8803 30.7331 23.7623C30.4934 23.6426 29.9002 23.5395 29.5616 22.706C29.5008 22.5572 29.6033 22.3859 29.6985 22.3419C29.7947 22.2989 29.9136 22.3207 30.0246 22.4259C30.1347 22.5293 30.3712 22.7576 30.5831 22.7659C30.7783 22.7752 30.8101 22.696 30.8496 22.6501C31.0135 22.4659 31.4834 21.779 32.4581 21.8982C32.8597 21.9473 33.2305 22.0366 33.3657 22.0467C33.4621 22.0531 33.7295 22.0651 33.9856 22.017C34.2774 21.9624 34.7129 21.8718 34.4998 22.1183C34.3265 22.3183 34.1817 22.4015 34.3334 22.6186C34.3412 22.6298 34.3491 22.6403 34.3564 22.6506C34.4932 22.8435 34.4969 23.1001 34.3578 23.291L34.3409 23.3155C34.1256 23.5952 33.6803 23.9173 32.7597 23.9756C32.3403 24.0023 32.314 23.9868 32.3051 24.2267C32.3019 24.3192 32.3031 24.368 32.3165 24.4325C32.3417 24.5532 32.4189 24.6033 32.7102 24.6215C32.9212 24.6343 33.3075 24.5928 33.3082 24.5927C33.4032 24.5642 33.515 24.6247 33.4541 24.7039C33.4445 24.7156 33.4059 24.7734 33.3991 24.7823C33.1902 25.0523 33.1251 25.299 33.1057 25.4464C33.0892 25.5713 33.0171 25.683 32.9066 25.7403C32.905 25.741 32.9038 25.7417 32.9022 25.7424C32.7679 25.8115 32.2247 25.9287 31.7973 26.2817C31.3719 26.6347 30.4824 26.9255 30.1002 26.4917C29.7175 26.0593 29.4058 25.0916 29.2396 24.3713ZM28.9631 20.0963C28.8435 20.109 28.7421 20.036 28.6115 20.0079C28.4601 19.9748 28.3674 20.0211 28.3046 19.9376C28.2491 19.852 28.2592 19.7711 28.3459 19.7382C28.4322 19.7058 28.4952 19.73 28.5825 19.7132C28.7603 19.6794 28.9768 19.4761 29.1371 19.7017C29.2407 19.8483 29.1519 20.0759 28.9631 20.0963ZM27.4861 25.5195C27.1018 25.2636 27.1225 24.9284 27.0248 24.5987C26.8173 23.8993 26.5944 23.0572 26.4017 22.3408C26.285 21.908 26.2553 20.8918 26.8429 20.8918C27.139 20.8918 27.36 20.9847 27.4546 21.2637C27.6653 21.8843 27.2685 21.7763 27.3701 22.5099C27.4425 23.0285 27.5415 23.5397 27.7053 24.4208C27.7806 24.8268 27.913 25.804 27.5561 25.5663M26.3542 15.5532C26.5684 14.9735 26.9581 14.4794 27.2241 14.1305C27.4675 13.8113 27.3525 13.3901 27.228 13.0128C27.1475 12.6651 26.9241 12.3055 26.8901 12.2105C26.8654 12.1438 26.8646 12.0902 26.886 12.0431C26.9017 12.0324 26.915 12.0237 26.9314 12.0132L27.402 11.973C28.7489 11.8007 29.9367 11.3276 30.2956 11.1262C30.4723 11.0271 30.6598 10.9492 30.8516 10.8842C31.0765 10.8079 31.309 10.7314 31.542 10.7006C31.7181 10.6718 31.9268 10.6446 32.1053 10.625C32.3716 10.5947 32.7926 10.7812 32.699 10.8367C32.4736 10.9718 31.427 11.2139 30.5062 12.3132C29.942 12.9854 29.8111 13.4012 29.6209 13.7108C29.4282 14.0214 29.2738 14.0954 29.003 14.3292C28.8706 14.4422 28.6007 14.6788 28.4685 15.0555C28.3348 15.4354 27.8206 16.7613 27.7536 18.8669C27.7463 19.1113 27.7037 19.3695 27.4721 19.4581C27.4721 19.4581 27.4708 19.4585 27.4703 19.4588C27.2799 19.5359 27.1258 19.6616 27.094 19.5245C26.9718 19.0624 26.6885 18.0657 26.57 17.4344C26.5325 17.2351 26.4883 17.0381 26.4412 16.8412C26.3122 16.3031 26.2537 15.8254 26.3542 15.5532ZM30.4502 20.6735C30.2054 20.8288 29.9654 21.0087 29.7828 21.1269C29.56 21.2738 29.2467 21.1331 29.3383 20.8207C29.3834 20.6689 29.599 20.2799 29.9613 20.2113C30.0084 20.2015 30.1881 20.1673 30.3385 20.1492C30.5139 20.1305 30.7007 20.1146 30.7959 20.1106C31.0527 20.0993 31.0806 20.3052 30.9066 20.4116C30.7911 20.4826 30.6128 20.5705 30.4502 20.6735ZM30.7879 21.1334C30.8534 21.0801 30.8824 21.0799 31.1034 20.9584C31.2605 20.8714 31.4398 20.7639 31.6209 20.6463C31.949 20.433 32.5702 20.2123 32.8339 20.2152C33.0244 20.2175 33.3575 20.2997 33.5347 20.4927C33.7198 20.6945 33.7703 20.9294 33.5288 20.8886C33.2897 20.8473 33.0356 20.7828 32.5753 20.8886C32.0604 21.0061 31.7108 21.2034 31.4624 21.3146C31.2083 21.4322 30.9511 21.4605 30.866 21.4566C30.784 21.451 30.5502 21.326 30.7879 21.1334ZM34.5905 25.694C34.6507 25.8045 34.6701 25.9901 34.653 26.0666C34.6352 26.1607 34.3053 26.2835 34.0308 25.8732C33.7569 25.4654 33.8852 24.9638 34.0484 24.7669C34.3066 24.4507 34.7017 24.6806 34.6448 24.7973C34.4471 25.2028 34.535 25.5843 34.5905 25.694ZM42.8238 21.6905C42.7228 21.7414 42.342 21.6137 42.2367 21.5546C42.0258 21.4365 41.876 21.3528 41.5924 21.1107C41.4044 20.9518 41.0617 20.8771 40.7371 20.8927C40.4887 20.9048 40.2414 20.958 40.0507 21.0025C39.8626 21.048 39.8482 20.8771 39.9043 20.8125C39.9607 20.7482 40.2247 20.5063 40.801 20.3554C40.8848 20.3333 41.0469 20.3408 41.1287 20.3495C41.3691 20.3764 41.6568 20.5362 41.8638 20.7372C42.0705 20.9397 42.489 21.2961 42.7151 21.4341C42.8228 21.4985 43.0626 21.5685 42.8238 21.6905ZM42.5886 20.7374C42.5886 20.7374 42.2322 20.494 42.1182 20.2961C42.062 20.1983 42.0748 20.1166 42.2255 20.1154C42.7598 20.1098 43.2491 20.097 43.4873 20.2968C43.6606 20.4427 43.6654 20.7473 43.5804 20.944C43.4822 21.1685 43.2863 21.1048 43.1744 21.0888C43.0628 21.0719 42.5886 20.7374 42.5886 20.7374ZM45.2669 19.9376C45.186 20.0252 45.1145 19.9725 44.9477 20.0139C44.8177 20.0456 44.7312 20.1189 44.6115 20.1082C44.4223 20.0912 44.3293 19.8652 44.4302 19.717C44.5866 19.4883 44.807 19.6874 44.9851 19.7186C45.0725 19.7339 45.1353 19.7083 45.2223 19.7394C45.3093 19.7704 45.3212 19.8508 45.2669 19.9376ZM29.8641 9.61029C29.9458 9.48396 30.144 9.29945 30.3418 9.15658C30.5493 9.00801 31.5701 8.24329 32.5182 7.95451C32.694 7.9022 32.739 7.87569 32.8513 7.84883C32.9935 7.81182 33.1139 7.50561 32.818 7.46095C32.5076 7.41611 32.381 7.4364 32.2156 7.44191C32.0501 7.44547 31.9702 7.35669 32.0903 7.22644C32.2124 7.09549 32.4321 6.96205 32.8187 6.8069C33.6628 6.47062 35.1588 6.29109 35.8565 6.22899C36.7667 6.15053 36.8769 6.15338 37.469 6.19893C38.0239 6.24074 38.4592 6.34429 38.6652 6.38059C39.7098 6.56954 40.9133 7.05332 41.9833 7.64065C42.5466 7.9748 43.0893 8.34791 43.5946 8.74166C45.1276 9.93678 46.8884 12.21 46.6314 16.9979C46.6008 17.5632 46.5339 17.8767 46.4969 18.0132C46.4587 18.1518 46.2752 18.3884 46.1781 18.0753C45.8614 17.0509 45.4539 15.2454 44.5269 13.8195C44.3979 13.6207 44.1989 13.6392 44.2186 13.8486C44.2259 13.936 44.2688 14.8493 44.2462 15.0258C44.096 16.2019 44.4563 15.7437 44.9871 17.0056C45.1515 17.3959 45.363 18.1678 45.416 18.6654C45.4297 18.7905 45.4466 18.9355 45.4498 19.0747C45.4534 19.2505 45.3662 19.2622 45.3662 19.2622C45.0031 19.261 44.37 19.0886 44.0284 19.0777C43.64 19.0652 40.9439 19.038 39.9308 19.1179C38.9168 19.1953 38.3641 19.5601 37.7902 20.0301C37.695 20.1081 37.5592 20.181 37.4829 20.2191C37.4444 20.2383 37.4017 20.244 37.3598 20.2367C37.3131 20.2287 37.2375 20.2143 37.1176 20.1894C36.8701 20.1385 36.5707 20.1184 36.3287 20.1926C36.0871 20.2648 35.9732 20.3271 35.712 20.1757C35.3401 19.9582 34.7697 19.0902 32.7792 19.0741C31.6514 19.0652 30.1721 19.0499 29.3012 19.0884C29.0197 19.1007 28.8729 19.1323 28.8007 19.1305C28.7946 19.0974 28.793 19.0515 28.7928 19.0425C28.7779 17.4531 29.8152 17.8054 29.934 17.3924C30.2303 16.3629 30.2997 13.8867 32.0976 12.3664C32.9572 11.6399 33.4039 11.6093 34.2018 11.6093C35.0615 11.6093 35.9001 11.8336 36.3278 12.0456C36.6682 12.2137 36.8368 12.3263 36.9706 12.2274C37.1043 12.1256 37.4621 11.8013 37.6096 11.6899C37.7578 11.5762 37.7019 11.3997 37.5621 11.2842C37.4275 11.1751 36.152 9.57097 34.1966 9.24768C33.7488 9.17313 33.418 9.10516 33.0111 9.10409C32.7912 9.09591 32.5958 9.09502 32.085 9.15694C31.3366 9.24768 30.3582 9.6642 29.7287 9.91401C29.6947 9.87789 29.8248 9.66687 29.8641 9.61029ZM29.2182 31.9049C29.2375 32.7258 29.7136 34.8933 32.4668 36.9501C33.615 37.8077 34.1414 38.1945 34.2929 38.2995L34.2921 38.3057C34.3678 38.3586 33.885 38.3463 33.7521 38.3591C33.5367 38.3796 32.8026 38.313 32.2149 38.4219C31.6846 38.5196 31.7567 38.6474 31.704 39.031C31.6622 39.335 31.7014 39.8169 31.6862 40.2275C31.6704 40.6382 31.6478 40.93 31.8218 41.1289C31.9933 41.3241 32.1017 41.3554 32.8294 41.3104C33.5215 41.268 35.438 41.2666 35.6689 41.2196C35.9654 41.1589 35.918 41.2664 35.7472 41.6331C35.4545 42.2614 34.5 45.1418 33.0164 47.8788C32.8084 48.2623 33.3933 48.081 33.8923 48.3215C34.7946 48.7569 34.7651 48.8779 35.0021 48.424C35.259 47.9319 36.5609 44.8678 36.7625 43.9218C36.7884 43.7983 36.8415 43.6914 36.8619 43.8768C36.8763 44.0104 36.8954 47.8811 36.7875 49.1021C36.7819 49.1667 36.7975 49.2341 36.8429 49.2807C36.908 49.3476 37.006 49.3754 37.0895 49.3949C37.0904 49.3949 37.0911 49.3949 37.092 49.3948C37.54 49.2453 38.0827 49.1353 38.5433 49.2113C38.5842 49.2065 38.6232 49.1976 38.6606 49.1861C38.6853 49.1654 38.7075 49.141 38.7234 49.1122C38.7593 49.0471 38.7776 48.9736 38.7937 48.9015C38.7951 48.896 38.7963 48.8907 38.7974 48.8846C38.8198 48.7818 38.8381 48.6775 38.8493 48.5727C38.8558 48.5108 38.86 48.4486 38.8641 48.3865C38.8691 48.3059 38.8727 48.2251 38.8753 48.1443C38.8789 48.047 38.8812 47.9495 38.8824 47.8525C38.8842 47.7399 38.8849 47.6274 38.8849 47.515C38.8849 47.3897 38.8837 47.2637 38.8819 47.1381C38.8798 47.0011 38.8766 47.0469 38.8727 46.91C38.8684 46.7634 38.863 46.6165 38.8568 46.47C38.8502 46.3154 38.8426 46.1608 38.8337 46.0062C38.8248 45.8453 38.8146 45.6848 38.8031 45.5242C38.7913 45.3591 38.7782 45.1939 38.7634 45.0288C38.7488 44.861 38.733 44.6936 38.7152 44.5258C38.6974 44.3573 38.678 44.1888 38.657 44.0207C38.636 43.8529 38.6134 43.6858 38.5885 43.5186C38.5643 43.3533 38.538 43.1887 38.5093 43.0243C38.4814 42.8638 38.4511 42.7948 38.4186 42.635C38.3867 42.4806 38.3528 42.3267 38.3156 42.1735C38.2802 42.0269 38.2417 41.881 38.1999 41.7361C38.1665 41.621 38.1311 41.5064 38.0932 41.3917C38.0864 41.3737 38.0554 41.2166 38.0595 41.1961C38.0713 41.1396 38.1424 41.1805 38.2202 41.1655C38.2202 41.1655 38.2567 41.1586 38.2773 41.1552C38.77 41.089 39.6276 41.1331 39.8212 41.1412C40.0119 41.1468 40.9868 41.2399 41.2615 41.265C41.5341 41.2913 41.8654 41.3547 41.8508 40.527C41.8469 40.3062 41.8461 40.1747 41.8469 39.9688C41.8472 39.9411 41.8472 39.9124 41.8472 39.885C41.8477 39.8327 41.8481 39.7813 41.8486 39.7318C41.8495 39.7014 41.8495 39.674 41.8502 39.645C41.8504 39.6167 41.8508 39.5886 41.8511 39.5615C41.8515 39.5363 41.852 39.5103 41.8524 39.4868C41.854 39.442 41.8549 39.3989 41.8566 39.3596C41.857 39.3471 41.857 39.3359 41.8577 39.324C41.8581 39.2939 41.8593 39.2667 41.8607 39.2411C41.8611 39.2283 41.8616 39.216 41.8623 39.2037C41.8632 39.1802 41.8646 39.1614 41.8655 39.1441C41.8662 39.1386 41.8662 39.1306 41.867 39.1258C41.8693 39.1009 41.8705 39.074 41.8714 39.0447C41.8776 38.8427 41.8517 38.4726 41.4691 38.3742C41.0286 38.2641 40.2539 38.2378 39.5573 38.2983C39.4602 38.307 39.4386 38.2983 39.4685 38.271L39.4692 38.2648C39.6194 38.1579 40.625 37.602 41.7755 36.5724C43.0411 35.437 43.6451 34.8335 44.0321 34.012C44.0321 34.012 45.4173 31.3247 45.3477 29.049C45.3337 28.5894 45.4077 28.628 45.6936 28.6364C45.7794 28.6389 46.1067 28.6159 46.2829 28.4992C46.8706 28.3654 47.3896 26.3593 47.3896 26.3593C47.3896 26.3593 48.2721 23.313 48.486 22.0672C48.6763 20.9591 48.6311 20.3116 47.9552 19.9824L47.842 19.9186C47.7912 19.8896 47.7659 19.83 47.7814 19.7736C47.7944 19.7264 47.8082 19.6711 47.8154 19.6296C48.1458 18.4816 48.7365 17.0285 48.6025 16.4396C48.5792 16.2706 48.4358 16.2156 48.3861 16.1818C48.3173 16.1352 48.0552 15.843 47.9824 15.6375C47.9716 15.6076 47.9677 15.5763 47.9648 15.5448C47.7784 13.3771 47.0081 10.6577 44.7138 8.28955C44.7104 8.28724 44.5561 8.14578 44.462 8.05985C44.2654 7.88299 44.0142 7.6629 43.725 7.446C43.114 6.98927 42.6265 6.63876 41.6218 6.13719C41.5442 6.09893 40.7896 5.75554 39.6746 5.48295C39.5703 5.45484 39.465 5.42762 39.3589 5.40271C39.1951 5.36428 38.9392 5.31713 38.6476 5.27709C37.9606 5.16945 37.1977 5.1118 36.4045 5.16073C36.3098 5.16536 36.1995 5.17123 36.1703 5.17158C36.123 5.17247 36.0732 5.17479 36.0248 5.17674C35.9709 5.17888 35.9182 5.17995 35.8622 5.18208C35.6942 5.19009 35.4729 5.21553 35.2405 5.24863C34.8652 5.30307 34.4628 5.37798 34.2147 5.43616C33.9372 5.50359 33.5632 5.5817 33.0956 5.71568C32.9036 5.77173 32.7102 5.83151 32.518 5.89378C32.4638 5.91104 32.4099 5.92777 32.3563 5.94503C32.1487 6.01353 31.94 6.08434 31.7289 6.16032C31.5759 6.21405 30.9258 6.49553 30.7843 6.56065C30.7166 6.59214 30.6231 6.63217 30.5223 6.6731C30.0639 6.81846 29.9677 7.08339 29.9511 7.22911C29.9404 7.3227 29.9191 7.41558 29.8792 7.50081C29.2188 8.90428 27.6655 9.04022 27.0488 9.071C26.8874 9.07883 26.7449 9.10249 26.796 9.25906C26.9275 9.66206 27.6539 10.4134 28.0986 10.5499C28.0922 10.6141 27.7176 10.6955 27.6392 10.7163C27.4602 10.7629 26.7239 10.6983 26.6876 10.7056C26.6844 10.706 26.6819 10.7065 26.6789 10.7067C25.8441 10.7769 25.5877 11.3454 25.5128 11.615C25.4895 11.6984 25.5028 11.7886 25.5507 11.8612C25.7348 12.142 25.9288 12.371 26.0748 12.7414C26.0764 12.7453 26.078 12.7496 26.0795 12.7535C26.1174 12.851 26.1521 12.9587 26.1823 13.0793C26.2001 13.2382 26.3271 13.4035 26.1665 13.715C25.8818 14.2668 25.1701 14.4394 25.0635 14.9875C24.9121 15.7669 25.1811 16.277 25.4759 17.5652C25.6782 18.4482 25.8967 19.361 26.0531 19.775C26.0613 19.7969 26.0485 19.8195 26.0257 19.8239C25.9631 19.8358 25.8547 19.8586 25.8183 19.8707C25.406 20.0348 25.2765 20.3595 25.2293 20.9941C25.126 22.3978 26.1624 24.5631 26.4835 26.4182C26.5917 27.0441 26.8801 28.0473 27.36 28.4579C27.4708 28.5528 27.7023 28.6136 27.8461 28.6385C28.2211 28.7036 28.3841 28.4663 28.4055 28.843C28.4101 28.9212 28.4366 29.1328 28.4402 29.2522C28.5046 30.5834 29.2182 31.9049 29.2182 31.9049Z" fill="#231F20"/>
</g>
<defs>
<clipPath id="clip0_1035_81816">
<rect width="66" height="66" fill="white" transform="translate(4 2)"/>
</clipPath>
</defs>
</svg>
