<svg width="66" height="64" viewBox="0 0 66 64" fill="none" xmlns="http://www.w3.org/2000/svg">
<g clip-path="url(#clip0_1035_81861)">
<g filter="url(#filter0_d_1035_81861)">
<path d="M49.4579 7.34128C50.1408 6.92009 50.9327 6.68093 51.7967 6.68093C54.265 6.68093 56.2625 8.67235 56.2625 11.1317C56.2625 11.9741 56.0349 12.7436 55.6311 13.4195L55.6519 13.4351C59.1552 18.1823 61.1732 24.0526 61.1732 30.3959C61.1732 46.1973 48.3247 59.009 32.4748 59.009C16.6249 59.009 3.77637 46.1973 3.77637 30.3959C3.77637 14.5946 16.6198 1.77777 32.4697 1.77777C38.8189 1.77777 44.7023 3.85759 49.4579 7.34128Z" fill="white"/>
</g>
<path d="M53.3234 15.2861C52.8475 15.4577 52.2938 15.5721 51.7658 15.5721C49.3183 15.5721 47.3313 13.5911 47.3313 11.1525C47.3313 10.6014 47.4346 10.0762 47.616 9.59265C43.3572 6.50412 38.1204 4.67908 32.4594 4.67908C18.2189 4.67908 6.67432 16.1908 6.67432 30.3909C6.67432 44.5907 18.2189 56.0973 32.4594 56.0973C46.6999 56.0973 58.2446 44.5907 58.2446 30.3909C58.2446 24.7545 56.4076 19.529 53.3234 15.2913" fill="#FFED00"/>
<path d="M49.3604 11.0904C49.3604 9.74894 50.4522 8.66223 51.7977 8.66223C53.1432 8.66223 54.2401 9.74894 54.2401 11.0904C54.2401 12.4319 53.1483 13.5186 51.7977 13.5186C50.4471 13.5186 49.3604 12.4319 49.3604 11.0904Z" fill="#E30613"/>
<path d="M19.7297 45.214C19.8849 45.0527 20.0608 44.9384 20.2575 44.8655C20.4593 44.7825 20.6611 44.7462 20.8681 44.7462C21.0751 44.7462 21.2717 44.7876 21.4684 44.8655C21.665 44.9435 21.8461 45.058 22.0013 45.214L22.2238 45.4375L21.7788 45.8847L21.5512 45.6612C21.458 45.5675 21.3493 45.4949 21.2251 45.4479C21.1061 45.4011 20.9871 45.3752 20.8629 45.3752C20.7387 45.3752 20.6145 45.3961 20.4955 45.4479C20.3765 45.4949 20.2678 45.5675 20.1747 45.6612C20.0764 45.7496 20.0039 45.8535 19.9574 45.9731C19.9108 46.0927 19.8849 46.2123 19.8849 46.337C19.8849 46.462 19.9108 46.5867 19.9574 46.7009C20.0039 46.8155 20.0764 46.9247 20.1747 47.0235C20.3662 47.2157 20.5938 47.3095 20.8629 47.3095C20.9871 47.3095 21.1165 47.2833 21.2303 47.2366C21.3493 47.1898 21.4528 47.1169 21.546 47.0235L21.7737 46.7997L22.2187 47.2523L21.9962 47.4758C21.8409 47.6317 21.6598 47.7514 21.4632 47.8293C21.2665 47.9073 21.0647 47.9436 20.8629 47.9436C20.6611 47.9436 20.4541 47.9073 20.2523 47.8293C20.0557 47.7463 19.8797 47.6317 19.7245 47.4758C19.5641 47.3199 19.4503 47.1378 19.3726 46.9455C19.295 46.7479 19.2588 46.5503 19.2588 46.3474C19.2588 46.1448 19.295 45.9368 19.3726 45.7442C19.4503 45.5467 19.5641 45.3752 19.7245 45.2193" fill="#E20714"/>
<path d="M23.3833 45.6726C23.1918 45.8649 23.0987 46.0937 23.0987 46.3588C23.0987 46.5044 23.1349 46.6502 23.197 46.7799C23.2539 46.7228 23.3419 46.6344 23.4557 46.5201C23.5747 46.4005 23.6938 46.2809 23.8231 46.1508C23.9577 46.0157 24.0819 45.891 24.2009 45.7714C24.3251 45.6518 24.4182 45.5581 24.4855 45.4905C24.3044 45.4022 24.1129 45.3709 23.9059 45.3971C23.7041 45.423 23.5282 45.5167 23.3781 45.6673M24.9719 46.8165L25.4221 47.2635L25.1996 47.4872C25.0443 47.6381 24.8736 47.7575 24.6769 47.8357C24.4803 47.9136 24.2785 47.955 24.0612 47.955C23.8438 47.955 23.642 47.9136 23.4454 47.8357C23.2488 47.7524 23.0728 47.6381 22.9227 47.4872C22.7623 47.3313 22.6485 47.1545 22.5709 46.962C22.4984 46.7644 22.457 46.5618 22.457 46.3538C22.457 46.1458 22.4984 45.9533 22.5709 45.7557C22.6485 45.5581 22.7675 45.3867 22.9227 45.2254C23.078 45.0695 23.2591 44.9549 23.4506 44.8769C23.6524 44.7939 23.8542 44.7573 24.0612 44.7573C24.2682 44.7573 24.4648 44.799 24.6614 44.8769C24.8632 44.9549 25.0392 45.0695 25.1996 45.2254L25.4221 45.4489L23.642 47.2272C23.8231 47.3155 24.0146 47.3468 24.2164 47.3209C24.4234 47.2843 24.5993 47.1959 24.7494 47.04L24.9719 46.8165Z" fill="#E20714"/>
<path d="M25.6289 46.3487C25.6289 46.1252 25.6703 45.9223 25.7531 45.73C25.8411 45.5375 25.9549 45.3661 26.0946 45.2203C26.2447 45.0748 26.4155 44.9605 26.612 44.8825C26.8086 44.7992 27.0105 44.7525 27.233 44.7525C27.4555 44.7525 27.6625 44.7942 27.8539 44.8825C28.0505 44.9656 28.2214 45.0748 28.3662 45.2203C28.5163 45.3661 28.6301 45.5324 28.7078 45.73C28.7957 45.9223 28.8371 46.1303 28.8371 46.3487V47.9553H28.2059V46.3487C28.2059 46.2136 28.18 46.094 28.1282 45.9797C28.0818 45.8601 28.0091 45.7559 27.9212 45.6729C27.8385 45.5845 27.7351 45.5116 27.616 45.4649C27.4969 45.4128 27.3727 45.3869 27.2383 45.3869C27.1037 45.3869 26.9795 45.4128 26.8604 45.4649C26.7416 45.5116 26.6379 45.5845 26.5501 45.6729C26.4619 45.7613 26.3946 45.8601 26.343 45.9797C26.2964 46.094 26.2706 46.2136 26.2706 46.3487V47.9553H25.6341V46.3487H25.6289Z" fill="#E20714"/>
<path d="M29.5099 45.214C29.6702 45.0527 29.8411 44.9384 30.0377 44.8655C30.2396 44.7825 30.4412 44.7462 30.6431 44.7462C30.845 44.7462 31.0467 44.7876 31.2433 44.8655C31.4452 44.9435 31.6212 45.058 31.7814 45.214L32.0041 45.4375L31.5589 45.8847L31.3314 45.6612C31.2331 45.5675 31.1295 45.4949 31.0106 45.4479C30.8915 45.4011 30.7673 45.3752 30.6431 45.3752C30.5189 45.3752 30.3998 45.3961 30.2756 45.4479C30.1568 45.4949 30.0481 45.5675 29.9549 45.6612C29.8617 45.7496 29.7893 45.8535 29.7428 45.9731C29.6961 46.0927 29.6702 46.2123 29.6702 46.337C29.6702 46.462 29.6961 46.5867 29.7428 46.7009C29.7893 46.8155 29.8617 46.9247 29.9549 47.0235C30.1464 47.2157 30.3739 47.3095 30.6431 47.3095C30.7724 47.3095 30.8966 47.2833 31.0157 47.2366C31.1295 47.1898 31.2382 47.1169 31.3314 47.0235L31.5589 46.7997L32.0041 47.2523L31.7814 47.4758C31.6262 47.6317 31.4452 47.7514 31.2433 47.8293C31.0467 47.9073 30.8501 47.9436 30.6431 47.9436C30.4361 47.9436 30.2342 47.9073 30.0377 47.8293C29.8411 47.7463 29.6651 47.6317 29.5099 47.4758C29.3494 47.3199 29.2356 47.1378 29.1579 46.9455C29.0805 46.7479 29.0391 46.5503 29.0391 46.3474C29.0391 46.1448 29.0805 45.9368 29.1579 45.7442C29.2356 45.5467 29.3494 45.3752 29.5099 45.2193" fill="#E20714"/>
<path d="M32.8736 46.3538C32.8736 46.4889 32.8941 46.6136 32.9459 46.7332C32.9977 46.8477 33.065 46.9569 33.1529 47.0453C33.2408 47.1284 33.3495 47.2013 33.4686 47.2533C33.5877 47.3001 33.717 47.326 33.8516 47.326C33.9859 47.326 34.1101 47.3001 34.2292 47.2533C34.3483 47.1959 34.4517 47.1284 34.5345 47.0453C34.6226 46.9569 34.695 46.8477 34.7415 46.7332C34.7933 46.6136 34.8192 46.4889 34.8192 46.3538C34.8192 46.2184 34.7933 46.0988 34.7415 45.9845C34.6897 45.8649 34.6226 45.761 34.5345 45.6777C34.4517 45.5893 34.3483 45.5167 34.2292 45.4697C34.1101 45.4179 33.9859 45.3917 33.8516 45.3917C33.717 45.3917 33.5928 45.423 33.4686 45.4697C33.3548 45.5167 33.2461 45.5842 33.1529 45.6777C33.0701 45.761 32.9977 45.8649 32.9459 45.9845C32.8941 46.0988 32.8736 46.2237 32.8736 46.3538ZM32.2422 46.3538C32.2422 46.13 32.2836 45.922 32.3664 45.7348C32.4543 45.5373 32.5683 45.3709 32.708 45.2254C32.8527 45.0799 33.0287 44.9653 33.2202 44.8874C33.4168 44.8043 33.6238 44.7573 33.8412 44.7573C34.0586 44.7573 34.2757 44.799 34.4621 44.8874C34.6587 44.9653 34.8296 45.0799 34.9795 45.2254C35.1245 45.3709 35.2436 45.5373 35.321 45.7348C35.4038 45.9274 35.4506 46.13 35.4506 46.3538C35.4506 46.5773 35.4038 46.7799 35.321 46.9775C35.2436 47.17 35.1245 47.3468 34.9795 47.4872C34.8296 47.6328 34.6587 47.7524 34.4621 47.8357C34.2706 47.9136 34.0636 47.955 33.8412 47.955C33.6187 47.955 33.4117 47.9136 33.2202 47.8357C33.0236 47.7524 32.8527 47.6328 32.708 47.4872C32.5629 47.3417 32.4492 47.17 32.3664 46.9775C32.2836 46.7799 32.2422 46.5773 32.2422 46.3538Z" fill="#E20714"/>
<path d="M38.5402 44.7462V45.3806H36.6049C36.5117 45.3806 36.4393 45.4118 36.372 45.4743C36.3151 45.5365 36.2788 45.6145 36.2788 45.7031C36.2788 45.7915 36.3098 45.8745 36.372 45.937C36.434 45.9992 36.5117 46.0305 36.6049 46.0305H37.8882C38.0226 46.0305 38.1468 46.0566 38.2608 46.1085C38.3797 46.1554 38.4833 46.223 38.5661 46.306C38.659 46.3893 38.7263 46.4932 38.773 46.6128C38.8246 46.7274 38.8558 46.8521 38.8558 46.9821C38.8558 47.1121 38.8299 47.2422 38.773 47.3565C38.7263 47.4707 38.659 47.5749 38.5661 47.6683C38.4833 47.7516 38.3797 47.8192 38.2608 47.8712C38.1468 47.918 38.0226 47.9439 37.8882 47.9439H35.9581V47.3097H37.8882C37.9812 47.3097 38.064 47.2785 38.1209 47.216C38.1831 47.1538 38.2141 47.0756 38.2141 46.9821C38.2141 46.8884 38.1831 46.8158 38.1209 46.7533C38.0589 46.6908 37.9812 46.6598 37.8882 46.6598H36.6049C36.4703 46.6598 36.3461 46.639 36.227 46.5869C36.1132 46.5349 36.015 46.4673 35.9268 46.3789C35.844 46.2906 35.7717 46.1867 35.7198 46.0721C35.6734 45.9525 35.6475 45.8278 35.6475 45.6927C35.6475 45.5573 35.6683 45.4377 35.7198 45.3234C35.7717 45.2092 35.839 45.105 35.9268 45.0166C36.015 44.9333 36.1132 44.8658 36.227 44.8191C36.3461 44.767 36.4754 44.7411 36.6049 44.7411H38.5402V44.7462Z" fill="#E20714"/>
<path d="M42.2599 44.7462V46.3423C42.2599 46.5608 42.2185 46.7688 42.1306 46.961C42.0478 47.1535 41.9391 47.3249 41.789 47.4758C41.6389 47.6213 41.4683 47.7359 41.2714 47.8242C41.0802 47.9073 40.8783 47.9436 40.6505 47.9436C40.4229 47.9436 40.2264 47.9022 40.0295 47.8242C39.833 47.7409 39.6623 47.6213 39.5173 47.4758C39.3725 47.3249 39.2587 47.1535 39.1706 46.961C39.0878 46.7688 39.0518 46.5608 39.0518 46.3423V44.7462H39.6882V46.3423C39.6882 46.4775 39.7088 46.6022 39.7606 46.7218C39.8124 46.8414 39.8797 46.9455 39.9676 47.0339C40.0554 47.1223 40.1591 47.1898 40.2779 47.2419C40.397 47.2886 40.5212 47.3145 40.6558 47.3145C40.7904 47.3145 40.9146 47.2886 41.0335 47.2419C41.1526 47.1898 41.2559 47.1223 41.3441 47.0339C41.437 46.9455 41.5043 46.8363 41.5511 46.7218C41.6026 46.6022 41.6285 46.4775 41.6285 46.3423V44.7462H42.2599Z" fill="#E20714"/>
<path d="M44.0508 47.31C44.1854 47.31 44.3096 47.2841 44.4234 47.2371C44.5422 47.1853 44.6408 47.1175 44.7286 47.0291C44.8218 46.9407 44.8942 46.8315 44.9356 46.7119C44.9874 46.5925 45.0133 46.4676 45.0133 46.3325V45.3704H44.0508C43.9162 45.3704 43.7869 45.3966 43.6729 45.4484C43.554 45.4954 43.4453 45.563 43.3575 45.6513C43.2747 45.7397 43.2074 45.8385 43.1505 45.9581C43.1038 46.0724 43.0778 46.1974 43.0778 46.3271C43.0778 46.4572 43.1038 46.5872 43.1505 46.7068C43.202 46.8264 43.2693 46.9303 43.3575 47.024C43.4504 47.1124 43.554 47.18 43.6729 47.232C43.7869 47.2788 43.9162 47.3047 44.0508 47.3047M45.6498 43.457V46.3325C45.6498 46.5509 45.6084 46.7589 45.5203 46.9565C45.4375 47.1487 45.3237 47.3204 45.1789 47.4713C45.0339 47.6168 44.8683 47.7311 44.6718 47.8195C44.4752 47.9028 44.2682 47.9391 44.0508 47.9391C43.8334 47.9391 43.6264 47.8974 43.4299 47.8195C43.2333 47.7364 43.0624 47.6168 42.9123 47.4713C42.7675 47.3204 42.6484 47.1487 42.5605 46.9565C42.4777 46.764 42.4414 46.556 42.4414 46.3325C42.4414 46.109 42.4777 45.9061 42.5605 45.7138C42.6484 45.5162 42.7622 45.3496 42.9123 45.2094C43.0624 45.0636 43.2333 44.9494 43.4299 44.8661C43.6264 44.783 43.8334 44.7363 44.0508 44.7363H45.0133V43.452H45.6498V43.457Z" fill="#E20714"/>
<path d="M38.3479 25.7481L38.7827 23.3408C38.7827 23.3408 35.8385 23.1536 35.3572 25.7481H34.3119L33.9497 27.4433H35.1139L34.2342 32.3985C33.8875 35.1802 36.9044 35.0606 36.9044 35.0606C40.1074 35.0606 39.8486 32.7675 39.8486 32.7675C39.8486 32.7675 36.8371 34.2857 37.2924 31.5769L38.0427 27.4433H38.9897C38.9897 27.4433 40.0195 27.4433 40.2057 26.8297L40.4955 25.7481H38.3533H38.3479Z" fill="#E30613"/>
<path d="M52.7285 27.1368C51.9006 27.0017 50.9279 27.9012 50.5243 29.903C50.1774 31.6292 50.1104 33.2046 51.2746 33.3554C52.325 33.4905 53.1219 32.3154 53.479 30.5892C53.8826 28.6499 53.8876 27.3293 52.7339 27.1421M56.5993 31.0677C55.9369 33.7039 53.9603 35.0192 51.1245 35.0192C48.8527 35.0192 46.3173 33.6102 47.3833 29.409C48.0405 26.8091 49.9448 25.4573 52.8527 25.4573C55.4815 25.4573 57.6291 26.9496 56.5993 31.0677Z" fill="#E30613"/>
<path d="M30.1772 27.084C28.4799 26.9384 28.0144 29.4913 28.0144 29.4913C28.0144 29.4913 30.5912 29.7461 30.9897 28.3683C30.9897 28.3683 31.4399 27.1932 30.1772 27.089M27.8902 31.1916C27.8902 31.1916 27.4036 34.384 33.1062 32.5798C33.1062 32.5798 33.282 35.0027 29.8359 35.0027C29.8359 35.0027 24.123 35.6267 24.8319 30.0165C24.8319 30.0165 25.4322 25.3525 30.2239 25.3525C30.2239 25.3525 33.7218 25.1913 33.7218 27.9678C33.7218 27.9678 33.9806 31.358 27.8902 31.1967" fill="#E30613"/>
<path d="M44.3603 27.692C45.8351 25.1078 47.8016 25.6018 47.8016 25.6018L47.1547 28.4772C44.3034 27.8637 43.8534 30.9001 43.8534 30.9001L43.077 34.753H41.6179C39.8585 34.753 40.4225 32.9644 40.4225 32.9644L41.799 25.7527H43.5222C43.5222 25.7527 44.8002 25.711 44.5002 26.8757L44.3656 27.6973L44.3603 27.692Z" fill="#E30613"/>
<path d="M9.17924 34.7957C9.17924 34.7957 10.5712 34.9257 11.0525 33.5426L14.2038 26.2166L13.4638 33.2203C13.4638 33.2203 13.1016 34.7957 14.5557 34.7957H16.0149C16.9256 34.7957 17.2982 33.9482 17.2982 33.9482L21.2309 26.5856L20.0614 33.4438C19.7717 34.8945 21.2309 34.7957 21.2309 34.7957H23.1662L25.1274 23.4608H21.914C20.6203 23.4608 20.2943 24.1627 20.2943 24.1627L16.9049 30.3139L17.4431 24.7763C17.6087 23.3308 15.9787 23.466 15.9787 23.466H13.0395L8.06152 34.801H9.17924V34.7957Z" fill="#E30613"/>
</g>
<defs>
<filter id="filter0_d_1035_81861" x="1.02081" y="0.124437" width="64.0103" height="63.8446" filterUnits="userSpaceOnUse" color-interpolation-filters="sRGB">
<feFlood flood-opacity="0" result="BackgroundImageFix"/>
<feColorMatrix in="SourceAlpha" type="matrix" values="0 0 0 0 0 0 0 0 0 0 0 0 0 0 0 0 0 0 127 0" result="hardAlpha"/>
<feOffset dx="0.551111" dy="1.65333"/>
<feGaussianBlur stdDeviation="1.65333"/>
<feColorMatrix type="matrix" values="0 0 0 0 0.0705882 0 0 0 0 0.0627451 0 0 0 0 0.0431373 0 0 0 0.15 0"/>
<feBlend mode="normal" in2="BackgroundImageFix" result="effect1_dropShadow_1035_81861"/>
<feBlend mode="normal" in="SourceGraphic" in2="effect1_dropShadow_1035_81861" result="shape"/>
</filter>
<clipPath id="clip0_1035_81861">
<rect width="64.254" height="64" fill="white" transform="translate(0.98291)"/>
</clipPath>
</defs>
</svg>
