<svg width="181" height="46" viewBox="0 0 181 46" fill="none" xmlns="http://www.w3.org/2000/svg">
<path d="M31.0263 12.8085C36.4056 18.1736 37.0944 22.2618 37.1191 26.0695C37.1623 32.3648 31.8323 41.3994 21.8305 41.3107C13.2516 41.2364 8.72777 34.2501 8.72777 27.8558C8.72777 21.0861 13.8212 14.4092 21.1684 14.4071C27.5573 14.405 30.1277 18.9306 30.1277 22.6042C30.1277 26.9688 27.1707 29.574 24.3721 29.5637C21.5714 29.5534 20.4528 27.7485 20.4528 26.2015C20.4528 24.834 21.5262 23.5365 22.8628 23.5324C25.0301 23.5324 25.0548 26.2675 23.7552 26.2799C23.1219 26.2861 22.7147 25.7003 23.1136 24.9103C22.03 25.5188 22.5893 26.942 23.8004 26.942C26.3503 26.942 26.2762 22.2102 22.6674 22.2102C20.5803 22.2102 18.7831 23.9924 18.7831 26.383C18.7831 29.2564 21.0635 31.9131 24.7463 31.9131C29.2373 31.9131 33.2635 28.0291 33.2635 22.4C33.2635 16.5791 29.1921 10.5581 20.8414 10.5581C12.6347 10.5581 4.23682 17.7012 4.23682 27.8537C4.23682 37.5999 12.1124 45.5 21.8285 45.5C31.5445 45.5 39.4201 37.5999 39.4201 27.8537C39.4201 21.4904 36.0622 15.9129 31.0263 12.8085Z" fill="#F14273"/>
<path d="M29.8763 9.97388C29.8763 9.97388 31.9758 8.14428 30.6741 5.80313C29.1587 3.08039 26.7672 0.499969 26.7672 0.499969C26.7672 0.499969 25.4882 3.63112 25.8932 5.93102C26.5143 9.45614 29.8763 9.97388 29.8763 9.97388Z" fill="#73C32C"/>
<path d="M30.6543 11.9661C30.9689 9.8106 32.1163 7.77886 34.0122 6.39686C35.9081 5.01486 38.1886 4.54663 40.3292 4.90966C40.0146 7.06723 38.8672 9.09691 36.9712 10.4789C35.0753 11.8609 32.797 12.3291 30.6543 11.9661Z" fill="#73C32C"/>
<path d="M175.848 21.3196C175.591 20.9174 175.25 20.6265 174.828 20.4409C174.532 20.3027 174.201 20.2325 173.835 20.2325C173.284 20.2325 172.784 20.4161 172.342 20.7833C172.071 21.0081 171.857 21.2824 171.705 21.6063C171.555 21.9095 171.479 22.2478 171.479 22.6149C171.479 23.2853 171.711 23.8526 172.174 24.3167C172.642 24.7849 173.204 25.0221 173.862 25.0221C174.52 25.0221 175.077 24.7869 175.542 24.3208C176.006 23.8526 176.237 23.2874 176.237 22.6211C176.237 22.157 176.107 21.7239 175.848 21.3196ZM175.268 24.0753C174.88 24.4755 174.409 24.6735 173.862 24.6735C173.307 24.6735 172.836 24.4755 172.449 24.0733C172.058 23.669 171.863 23.1863 171.863 22.6191C171.863 22.0642 172.058 21.5857 172.449 21.1834C172.836 20.7812 173.302 20.5811 173.843 20.5811C174.281 20.5811 174.672 20.707 175.022 20.9565C175.272 21.136 175.472 21.3773 175.622 21.6805C175.774 22.0044 175.85 22.3179 175.85 22.6211C175.85 23.1904 175.657 23.6752 175.268 24.0753Z" fill="#85868A"/>
<path d="M174.128 22.842C174.29 22.7945 174.426 22.6976 174.531 22.5553C174.636 22.4088 174.687 22.25 174.687 22.0767C174.687 21.8209 174.588 21.6126 174.393 21.4538C174.216 21.3176 173.936 21.2496 173.554 21.2496H173.003V24.0074H173.529V22.9121L174.346 24.0074H174.987L174.093 22.8543L174.128 22.842ZM173.527 22.4727V21.7199H173.632C173.998 21.7199 174.179 21.8416 174.179 22.0829C174.179 22.3428 173.99 22.4727 173.614 22.4727H173.527Z" fill="#85868A"/>
<path d="M165.32 29.0333C165.32 30.7185 164.133 31.9643 162.425 31.9643C159.934 31.9643 159.644 29.8728 159.644 29.0333V20.2895H155.822V29.0333C155.822 32.9544 158.256 35.5967 161.904 35.5967C163.266 35.5967 164.423 35.1326 165.32 34.3756V36.1206C165.32 37.515 164.598 38.994 162.513 38.994C161.209 38.994 160.224 38.4453 159.992 37.3397H156.027C156.548 40.4193 159.241 42.5665 162.513 42.5665C166.506 42.5665 169.145 39.8954 169.145 35.8587V20.2895H165.32V29.0333Z" fill="#73C32C"/>
<path d="M51.0579 19.9112C46.5423 19.9112 43.3838 23.426 43.3838 27.7246V41.9014H47.2352V33.826C48.3662 34.9873 49.8426 35.569 51.5802 35.569C55.518 35.569 58.7012 32.0542 58.7012 27.7246C58.7012 23.426 55.5468 19.9112 51.0579 19.9112ZM51.0579 32.0253C48.944 32.0253 47.2352 30.107 47.2352 27.7246C47.2352 25.402 48.944 23.5126 51.0579 23.5126C53.1718 23.5126 54.8806 25.3154 54.8806 27.7246C54.8806 30.1668 53.1718 32.0253 51.0579 32.0253Z" fill="#73C32C"/>
<path d="M61.4238 35.2507H65.2465V20.2922H61.4238V35.2507Z" fill="#73C32C"/>
<path d="M63.3361 14.5961C62.2647 14.5961 61.397 15.4398 61.397 16.5165V18.6638H65.2464V16.5165C65.2464 15.4398 64.3786 14.5961 63.3361 14.5961Z" fill="#73C32C"/>
<path d="M75.4093 19.9109C71.3564 19.9109 68.6914 22.7884 68.6914 26.5919V35.249H72.5161V26.5053C72.5161 24.8222 73.7314 23.6609 75.4093 23.6609C77.9304 23.6609 78.2203 25.6637 78.2203 26.5053V35.249H82.0409V26.5919C82.0409 22.6728 79.5816 19.9109 75.4093 19.9109Z" fill="#73C32C"/>
<path d="M109.523 19.9694C107.785 19.9694 106.307 20.5222 105.18 21.7145V13.6411H101.329V27.7849C101.329 32.1125 104.485 35.5984 109.001 35.5984C113.49 35.5984 116.644 32.1125 116.644 27.7849C116.644 23.4842 113.459 19.9694 109.523 19.9694ZM109.001 32.0258C106.887 32.0258 105.18 30.1364 105.18 27.8118C105.18 25.4314 106.887 23.5131 109.001 23.5131C111.115 23.5131 112.823 25.3448 112.823 27.8118C112.823 30.1942 111.115 32.0258 109.001 32.0258Z" fill="#73C32C"/>
<path d="M126.027 19.912C121.799 19.912 118.381 23.4577 118.381 27.7852C118.381 32.1128 121.799 35.5987 126.027 35.5987C129.734 35.5987 132.368 33.536 133.238 30.4832H129.154C128.519 31.6755 127.24 32.2283 125.998 32.2283C124.696 32.2283 123.565 31.6487 122.813 30.6297L133.351 26.1867C132.629 22.1789 129.615 19.912 126.027 19.912ZM121.943 27.581C122.031 25.0254 123.798 23.2803 125.998 23.2803C127.213 23.2803 128.256 23.7775 128.951 24.617L121.943 27.581Z" fill="#73C32C"/>
<path d="M145.861 26.5921V35.2491H149.684V26.5921C149.684 24.4737 151.304 23.1639 153.739 23.6012V19.9997C148.785 19.3892 145.861 22.3532 145.861 26.5921Z" fill="#73C32C"/>
<path d="M135.901 26.5921V35.2491H139.724V26.5921C139.724 24.4737 141.346 23.1639 143.779 23.6012V19.9997C138.825 19.3892 135.901 22.3532 135.901 26.5921Z" fill="#73C32C"/>
<path d="M89.2503 29.615H91.3662C93.6837 29.615 94.5802 31.1826 94.5802 32.8369V35.2502H98.4316V32.2016C98.4316 30.2235 97.533 28.5981 95.8839 27.7565C97.533 26.9418 98.4316 25.2875 98.4316 23.3403V20.2917H94.5802V22.6741C94.5802 24.3283 93.6837 25.9269 91.3662 25.9269H89.2503V13.6395H85.4009V35.2502H89.2503V29.615Z" fill="#73C32C"/>
</svg>
