<svg width="180" height="70" viewBox="0 0 180 70" fill="none" xmlns="http://www.w3.org/2000/svg">
<path d="M11.9604 37.4224C12.0287 36.7276 12.1312 36.0328 12.2793 35.3152V35.2924C12.2565 35.2924 12.2338 35.2924 12.2224 35.3038C11.1745 35.4063 9.52291 35.5316 8.29279 35.6911C6.15148 35.9758 4.20375 36.2606 4.04429 36.4542C3.60007 36.9782 6.5387 37.3654 11.0035 37.4224L11.9604 37.4224Z" fill="url(#paint0_linear_1035_81767)"/>
<path d="M34.4558 17.0113C27.4052 17.0113 20.4459 20.9978 16.1518 26.8411C16.1518 26.8411 6.15131 27.5587 5.62716 28.4471C4.05535 31.4655 4.00977 36.5339 4.00977 36.5339V36.5225C4.02115 36.4997 4.03255 36.4769 4.04393 36.4541C4.2034 36.2605 6.15112 35.9757 8.29244 35.691C9.5112 35.5315 11.1741 35.4062 12.222 35.3037C12.2448 35.3037 12.2562 35.3037 12.279 35.2923C15.7529 34.9506 22.3822 34.4722 26.1635 34.3697C35.4465 34.1191 43.4536 34.1875 49.012 34.4381C50.6294 24.7336 44.2738 17.0112 34.4553 17.0112L34.4558 17.0113Z" fill="url(#paint1_linear_1035_81767)"/>
<path d="M49.0238 34.4382C43.4768 34.1876 35.4697 34.1078 26.1754 34.3698C22.3825 34.4723 15.7535 34.9507 12.2795 35.2924C12.2112 35.6797 12.0859 36.3175 11.9834 37.149V37.1946C11.9492 37.4793 11.9264 37.7641 11.9036 38.0488V38.1058C11.8923 38.3792 11.8809 38.6525 11.8809 38.9259C11.8809 39.0967 11.8809 39.2676 11.8922 39.4384C11.8922 39.5865 11.8922 39.7232 11.9036 39.8599C11.915 40.156 11.9378 40.4635 11.9606 40.7597C11.972 40.8394 11.9834 40.9306 11.9948 41.0103C12.0175 41.2381 12.0517 41.4659 12.0859 41.6937C12.0973 41.7848 12.12 41.8759 12.1314 41.967C12.1656 42.1834 12.2112 42.3998 12.2567 42.6163C12.2795 42.7074 12.2909 42.7871 12.3137 42.8669C12.3706 43.0833 12.4276 43.3111 12.4845 43.5275C12.4959 43.5617 12.5073 43.5958 12.5187 43.6414C16.0155 43.2997 20.3094 42.9694 25.378 42.7644C25.435 42.7644 27.5991 42.6846 27.6218 42.6846C32.3147 42.5366 42.8846 42.6163 45.7435 42.6505C46.1991 42.6505 46.4838 42.6619 46.4838 42.6619C48.8871 42.696 49.8667 42.7188 52.3613 42.8555C53.5117 42.9125 55.4252 42.9922 55.5277 43.2428V43.2542C55.5277 43.2656 55.5277 43.2656 55.5163 43.2769C57.0995 40.3497 57.1223 35.5088 57.1223 35.5088C57.2134 35.0874 54.1951 34.6773 49.0238 34.4382Z" fill="url(#paint2_linear_1035_81767)"/>
<path d="M46.3345 26.3514H48.4303C46.4826 20.7704 41.3113 17 34.4661 17C27.4155 17 20.4562 20.9979 16.1621 26.8298C19.2488 26.5451 23.2811 26.3059 27.2331 26.2376C28.0076 26.2262 29.4883 25.9072 30.3198 24.6771C31.8688 22.3763 33.3951 20.0526 35.559 19.2781C35.5932 19.2667 35.6388 19.2439 35.6729 19.2325C38.9761 17.991 43.3272 21.0548 46.3345 26.3514Z" fill="url(#paint3_linear_1035_81767)"/>
<path d="M45.7414 42.662C42.8824 42.6392 32.324 42.5481 27.6197 42.6962C27.597 42.6962 25.4443 42.7759 25.3759 42.7759C20.3073 42.9809 16.0132 43.2998 12.5166 43.6529C14.2935 49.553 19.5899 53.5964 26.6745 53.5964C34.1579 53.5964 41.5498 49.0973 45.7417 42.6617L45.7414 42.662Z" fill="#E4002B"/>
<path d="M45.7417 42.662C41.5388 49.0975 34.1579 53.5967 26.6746 53.5967C23.3031 53.5967 20.3418 52.6855 17.9609 51.0909C15.3412 49.3368 13.4391 46.7513 12.5049 43.6532C16.0017 43.3115 20.2956 42.9812 25.3642 42.7762C25.4325 42.7762 27.5967 42.6965 27.608 42.6965C32.3236 42.5484 42.8934 42.6281 45.741 42.6623L45.7417 42.662Z" fill="url(#paint4_linear_1035_81767)"/>
<path d="M45.7418 42.662C45.0356 42.6506 43.851 42.6506 42.3931 42.6392C39.0216 42.6165 34.1126 42.6051 30.6156 42.6392C29.841 43.2657 28.964 44.1997 28.554 45.0425C25.8317 49.644 24.8864 54.1545 16.4691 47.275C16.4691 47.275 15.1251 47.1497 14.2139 47.3206C15.1365 48.7329 16.3211 49.9403 17.7106 50.9198C17.8132 50.9882 17.9043 51.0451 17.9726 51.0907C18.1321 51.1932 18.2801 51.2957 18.4396 51.3982C20.729 52.7992 23.5195 53.5965 26.6748 53.5965C34.1582 53.5965 41.5499 49.0976 45.7418 42.662Z" fill="url(#paint5_linear_1035_81767)"/>
<path d="M55.5365 43.2428C55.434 42.9922 53.5205 42.9239 52.3701 42.8555C49.8642 42.7189 48.8847 42.6961 46.4926 42.6619C46.4926 42.6619 46.2079 42.6619 45.7523 42.6505C45.3308 43.2884 44.8866 43.9034 44.4082 44.5071C51.0144 44.3135 55.3545 43.8465 55.5365 43.2428Z" fill="url(#paint6_linear_1035_81767)"/>
<path d="M141.6 39.108C140.746 34.4952 144.983 29.3809 150.314 27.9116C156.521 26.6588 161.75 29.0507 162.695 33.8117C163.355 38.4702 159.768 43.3451 153.754 44.7464C148.07 45.8057 142.591 43.7664 141.6 39.108ZM149.596 33.5039C147.512 35.8731 146.976 38.9713 148.4 40.4061C149.824 41.8413 152.66 41.0895 154.733 38.7204C156.806 36.3513 157.353 33.253 155.929 31.8182C154.516 30.383 151.68 31.1348 149.596 33.5039ZM120.711 32.6041C120.677 31.9776 120.369 31.5106 119.811 31.2145C119.253 30.9184 118.433 30.7589 117.374 30.7589H116.291L115.266 35.5767H116.132C117.636 35.5767 118.786 35.3261 119.595 34.8136C120.392 34.2897 120.768 33.5609 120.711 32.6041ZM108.877 44.3359C108.877 44.3359 107.259 44.4042 107.476 42.8666L110.301 29.6311C110.46 28.868 111.212 28.2529 111.975 28.2529H118.797C120.05 28.2529 121.144 28.3326 122.078 28.4807C123.023 28.6174 123.843 28.8566 124.538 29.1982C125.233 29.5399 125.768 29.9842 126.155 30.5423C126.543 31.089 126.759 31.9091 126.816 32.7292C126.93 34.5858 126.087 36.0893 124.276 37.2169C122.465 38.3559 119.868 38.7887 116.474 38.7887H114.595L113.399 44.3357L108.877 44.3359ZM82.4973 32.5471C82.4517 31.8978 82.1784 31.4422 81.6658 31.1802C81.1533 30.9069 80.4243 30.7702 79.4562 30.7702H77.9185L76.9959 35.0985H78.5221C79.8434 35.0985 80.8457 34.882 81.5405 34.4264C82.2239 33.9708 82.5428 33.3444 82.4973 32.5471ZM75.0252 44.3359H70.4351C70.1162 44.3245 68.9202 44.2106 69.1139 42.8666L71.9386 29.6311C72.0981 28.868 72.8498 28.2529 73.6129 28.2529H81.381C82.5086 28.2529 83.4882 28.3212 84.3311 28.4465C85.1853 28.5718 85.9257 28.7996 86.5521 29.1185C87.1786 29.4375 87.5886 29.7336 88.0101 30.3601C88.4429 30.9979 88.5454 31.4763 88.6023 32.2508C88.739 34.096 87.9417 35.3489 86.3016 36.3968C84.7867 37.1941 82.6909 37.3194 82.1897 37.3308C82.1897 37.3308 81.6772 37.4447 82.2695 37.5928C82.2695 37.5928 82.9984 37.775 83.6021 38.3103C84.8892 39.3355 85.8346 40.3947 88.7504 44.3245H81.8595C81.8595 44.3245 80.6749 41.9439 78.2147 38.4018C77.6679 37.6159 76.7795 37.7411 76.4492 37.707L75.0252 44.3359ZM170.427 41.2378H175.996L175.62 43.0261C175.472 43.755 174.709 44.3473 173.969 44.3473H165.21C164.891 44.3359 163.695 44.222 163.889 42.878L166.714 29.6425C166.873 28.8794 167.625 28.2643 168.388 28.2643H173.229L170.427 41.2378ZM98.2951 34.848H105.607L105.243 36.5337C105.095 37.2741 104.332 37.9119 103.569 37.9119H97.6459L96.9283 41.2378H104.241L103.865 43.0261C103.717 43.755 102.954 44.3473 102.213 44.3473H91.7003C91.3814 44.3359 90.1854 44.222 90.3791 42.878L93.2038 29.6425C93.3633 28.8794 94.115 28.2643 94.8781 28.2643H107.02L106.656 29.9843C106.496 30.7474 105.744 31.3625 104.981 31.3625H99.0472L98.2951 34.848ZM143.104 28.2644L142.739 29.9843C142.523 30.7817 141.931 31.3398 141.065 31.3626H140.678C137.204 31.374 136.987 32.3193 136.316 35.5427L135.484 39.3698C134.47 44.2446 130.074 44.3361 129.698 44.3361H120.893L121.269 42.6162C121.497 41.7733 122.124 41.2949 122.944 41.238H125.062C128.536 41.2266 128.753 40.2812 129.425 37.0578L130.256 33.2308C131.304 28.3672 136.6 28.2645 137.409 28.2645L143.104 28.2644Z" fill="#041E42"/>
<defs>
<linearGradient id="paint0_linear_1035_81767" x1="8.0969" y1="35.6318" x2="8.51959" y2="38.0294" gradientUnits="userSpaceOnUse">
<stop stop-color="#D85B13"/>
<stop offset="0.269" stop-color="#E57B0C"/>
<stop offset="0.5447" stop-color="#EF9407"/>
<stop offset="0.7964" stop-color="#F5A304"/>
<stop offset="1" stop-color="#F7A803"/>
</linearGradient>
<linearGradient id="paint1_linear_1035_81767" x1="14.908" y1="19.1585" x2="39.6074" y2="43.8565" gradientUnits="userSpaceOnUse">
<stop stop-color="#FDCC54"/>
<stop offset="0.0154" stop-color="#FCC94D"/>
<stop offset="0.1364" stop-color="#F7B01C"/>
<stop offset="0.1963" stop-color="#F5A709"/>
<stop offset="0.4906" stop-color="#F5A509"/>
<stop offset="0.6479" stop-color="#F39D09"/>
<stop offset="0.7728" stop-color="#F28F0A"/>
<stop offset="0.8806" stop-color="#EF7C0A"/>
<stop offset="0.9766" stop-color="#EB630B"/>
<stop offset="1" stop-color="#EA5C0B"/>
</linearGradient>
<linearGradient id="paint2_linear_1035_81767" x1="13.5713" y1="31.774" x2="54.4013" y2="46.6346" gradientUnits="userSpaceOnUse">
<stop stop-color="#A7A5A4"/>
<stop offset="0.0516" stop-color="#C5C4C3"/>
<stop offset="0.1074" stop-color="#DFDEDD"/>
<stop offset="0.1648" stop-color="#F1F0F0"/>
<stop offset="0.2241" stop-color="#FBFBFB"/>
<stop offset="0.2883" stop-color="white"/>
<stop offset="0.5148" stop-color="#FDFDFC"/>
<stop offset="0.6495" stop-color="#F5F4F4"/>
<stop offset="0.7602" stop-color="#E7E6E6"/>
<stop offset="0.8578" stop-color="#D3D2D2"/>
<stop offset="0.9461" stop-color="#BAB9B8"/>
<stop offset="1" stop-color="#A7A5A4"/>
</linearGradient>
<linearGradient id="paint3_linear_1035_81767" x1="18.9844" y1="19.0742" x2="47.3217" y2="29.3878" gradientUnits="userSpaceOnUse">
<stop offset="0.0859" stop-color="#FDCC54"/>
<stop offset="1" stop-color="#F1950A" stop-opacity="0.05"/>
</linearGradient>
<linearGradient id="paint4_linear_1035_81767" x1="29.1365" y1="53.5996" x2="29.1365" y2="42.6116" gradientUnits="userSpaceOnUse">
<stop stop-color="#88181E" stop-opacity="0.3"/>
<stop offset="0.4969" stop-color="#B21829" stop-opacity="0"/>
<stop offset="0.6534" stop-color="#AA1827" stop-opacity="0.3111"/>
<stop offset="0.8996" stop-color="#931821" stop-opacity="0.8004"/>
<stop offset="1" stop-color="#88181E"/>
</linearGradient>
<linearGradient id="paint5_linear_1035_81767" x1="22.7125" y1="54.6885" x2="36.8373" y2="35.9439" gradientUnits="userSpaceOnUse">
<stop offset="0.0123" stop-color="#E20334" stop-opacity="0"/>
<stop offset="0.0489" stop-color="#DA0531" stop-opacity="0.041"/>
<stop offset="0.2059" stop-color="#BB0E28" stop-opacity="0.2166"/>
<stop offset="0.3591" stop-color="#A51421" stop-opacity="0.388"/>
<stop offset="0.5056" stop-color="#98181D" stop-opacity="0.5519"/>
<stop offset="0.638" stop-color="#93191C" stop-opacity="0.7"/>
<stop offset="1" stop-color="#95191D"/>
</linearGradient>
<linearGradient id="paint6_linear_1035_81767" x1="49.9744" y1="44.5115" x2="49.9744" y2="42.6595" gradientUnits="userSpaceOnUse">
<stop offset="0.006135" stop-color="#D7D8D8"/>
<stop offset="0.1914" stop-color="#D0D1D1"/>
<stop offset="0.4642" stop-color="#BCBDBD"/>
<stop offset="0.7894" stop-color="#9C9D9D"/>
<stop offset="1" stop-color="#838484"/>
</linearGradient>
</defs>
</svg>
