<svg width="180" height="70" viewBox="0 0 180 70" fill="none" xmlns="http://www.w3.org/2000/svg">
<g clip-path="url(#clip0_1035_81778)">
<path d="M4 66H176V3H4V66Z" fill="black"/>
<path d="M141.088 66H146.467V50.2885H141.088V66Z" fill="#CFD4D8"/>
<path d="M44.4131 66H57.8592V50.2885H44.4131V66Z" fill="#741472"/>
<path d="M14.748 66H22.812V50.2885H14.748V66Z" fill="#FFD400"/>
<path d="M31.0107 66H39.0747V50.2885H31.0107V66Z" fill="#F15B5B"/>
<path d="M25.4941 66H31.0265V50.2885H25.4941V66Z" fill="#CFD4D8"/>
<path d="M57.7998 66H63.1757V50.2885H57.7998V66Z" fill="#CE171E"/>
<path d="M4 66H12.0607V50.2885H4V66Z" fill="#CE171E"/>
<path d="M162.613 66H170.68V50.2885H162.613V66Z" fill="#741472"/>
<path d="M63.1631 66H71.23V50.2885H63.1631V66Z" fill="#CFD4D8"/>
<path d="M71.208 66H79.2717V50.2885H71.208V66Z" fill="#CE171E"/>
<path d="M39.0527 66H44.4316V50.2885H39.0527V66Z" fill="#FFD400"/>
<path d="M146.464 66H149.155V50.2885H146.464V66Z" fill="white"/>
<path d="M84.6729 66H92.7148V50.2885H84.6729V66Z" fill="#FFD400"/>
<path d="M92.7148 66H100.782V50.2885H92.7148V66Z" fill="#741472"/>
<path d="M100.775 66H106.158V50.2885H100.775V66Z" fill="#F15B5B"/>
<path d="M106.145 66H108.858V50.2885H106.145V66Z" fill="#CE171E"/>
<path d="M108.854 66H116.918V50.2885H108.854V66Z" fill="#FFD400"/>
<path d="M119.575 66H122.26V50.2885H119.575V66Z" fill="white"/>
<path d="M81.9561 66H84.6629V50.2885H81.9561V66Z" fill="white"/>
<path d="M22.7939 66H25.485V50.2885H22.7939V66Z" fill="white"/>
<path d="M127.639 66H141.088V50.2885H127.639V66Z" fill="#CE171E"/>
<path d="M122.26 66H127.639V50.2885H122.26V66Z" fill="#741472"/>
<path d="M149.152 66H157.226V50.2885H149.152V66Z" fill="#F15B5B"/>
<path d="M157.225 66H162.619V50.2885H157.225V66Z" fill="#FFD400"/>
<path d="M170.668 66H176V50.2885H170.668V66Z" fill="#CE171E"/>
<path d="M12.0508 66H14.7386V50.2885H12.0508V66Z" fill="#741472"/>
<path d="M79.2686 66H81.9659V50.2885H79.2686V66Z" fill="#741472"/>
<path d="M116.905 66H119.597V50.2885H116.905V66Z" fill="#CFD4D8"/>
<path d="M34.7855 34.6895C34.7855 34.5817 34.6509 34.5478 34.6509 34.5478C33.3148 34.3013 32.0631 33.371 31.1181 32.3852C29.5723 30.7709 28.2737 28.713 27.7699 27.7518C27.6166 27.4099 27.8325 27.3698 27.8325 27.3698C30.4359 26.3624 30.8678 23.7654 30.8678 23.0538C30.8678 19.7544 27.7417 18.7809 24.9255 18.7809C23.8585 18.7809 23.5049 18.8702 22.394 18.8702C21.1079 18.8702 20.3319 18.7809 20.1316 18.7809C19.9533 18.7809 19.8438 18.938 19.8438 19.1136C19.8438 19.9084 21.6618 18.5621 21.6618 21.2177V31.8183C21.6618 34.2767 19.9345 33.5897 19.9345 34.1874C19.9345 34.3876 20.1504 34.4554 20.2881 34.4554C20.9327 34.4554 21.6618 34.363 22.7038 34.363C24.018 34.363 24.3466 34.4554 25.1039 34.4554C25.6546 34.4554 25.7453 34.3445 25.7453 34.1874C25.7453 33.4357 23.4172 34.5879 23.4172 31.3963V20.2195C23.4172 19.5572 23.9054 19.5572 24.6126 19.5572C27.166 19.5572 29.1843 20.9681 29.2281 23.6514C29.2562 25.4659 27.8951 27.188 25.6327 27.188C24.8379 27.188 25.0131 27.1418 24.8347 27.1418C24.7252 27.1418 24.6126 27.188 24.6126 27.3421C24.6126 27.5485 24.7784 27.6471 24.9662 27.7056C25.2196 27.8103 25.7891 27.9028 26.3837 28.8177C27.8951 31.2915 29.6004 34.9883 33.4837 34.9883C34.9325 34.9883 34.7855 34.8158 34.7855 34.6895ZM159.035 18.3003C158.14 18.3003 156.995 18.5837 156.147 19.3231C154.566 20.7094 153.506 23.0199 152.886 24.5048C152.695 25.0069 152.498 25.1579 152.392 25.1579C152.257 25.1579 152.126 25.0254 151.947 24.7574L149.585 20.9497C149.45 20.7494 149.184 20.3982 149.184 20.0439C149.184 19.4001 150.223 19.3785 150.223 19.0027C150.223 18.8024 149.96 18.7809 149.804 18.7809C149.585 18.7809 148.981 18.8702 148.249 18.8702C146.75 18.8702 146.318 18.7809 145.723 18.7809C145.567 18.7809 145.435 18.9595 145.435 19.1136C145.435 19.4894 146.521 19.2245 147.097 20.1764L150.802 26.0852C150.98 26.3532 151.315 26.7937 151.315 27.2127V32.5731C151.315 34.1442 149.607 33.5681 149.607 34.1874C149.607 34.4307 149.741 34.4554 149.935 34.4554C150.139 34.4554 150.936 34.363 151.932 34.363C152.755 34.363 154.044 34.4554 154.372 34.4554C154.688 34.4554 154.885 34.4307 154.885 34.2336C154.885 33.5466 153.064 34.1627 153.064 32.2373V26.9447C153.515 25.6046 154.438 23.4327 155.821 21.7137C156.913 20.3551 158.184 19.3015 159.908 18.71C160.024 18.6669 160.124 18.6145 160.124 18.4974C160.124 18.2941 159.035 18.3003 159.035 18.3003ZM123.228 21.1037C123.228 19.6219 123.181 19.7112 125.315 19.7112C126.207 19.7112 128.51 19.5757 129.086 20.3274C129.442 20.8418 129.086 21.9016 129.621 21.9016C129.752 21.9016 130.059 21.726 130.059 19.2676C130.059 19.0027 130.018 18.7809 129.843 18.7809C129.154 18.7809 127.111 18.8671 126.667 18.8671C125.737 18.8671 124.583 18.7809 120.39 18.7809C119.745 18.7809 119.617 18.8671 119.617 19.0458C119.617 19.3107 120.102 19.3569 120.277 19.4001C121.472 19.5757 121.472 20.6385 121.472 21.6336V31.7259C121.472 32.7672 121.435 33.3895 120.856 33.6575C120.146 34.0087 119.923 33.9656 119.883 34.2336C119.883 34.4092 120.014 34.4554 120.211 34.4554C121.1 34.4554 122.033 34.3876 122.918 34.363C124.608 34.3168 126.294 34.4554 127.978 34.4554C128.954 34.4554 129.442 34.4985 130.15 33.7006C130.678 33.1276 131.26 32.3544 131.26 31.5534C131.26 31.5102 131.238 31.2915 131.085 31.2915C130.791 31.2915 130.04 33.5681 124.914 33.5681C123.056 33.5681 123.228 33.0352 123.228 31.7259V27.6625C123.228 27.3267 123.162 26.9508 123.628 26.9508H126.911C128.776 26.9508 128.022 28.8947 128.71 28.8947C128.867 28.8947 128.954 28.8085 128.954 28.6113C128.954 28.0106 128.907 27.4376 128.907 26.8615C128.907 26.1499 128.954 25.4013 128.954 24.6218C128.954 24.4493 128.885 24.2059 128.71 24.2059C128.175 24.2059 128.776 25.9773 126.47 25.9773H124.073C123.181 25.9773 123.228 25.9773 123.228 25.2226V21.1037ZM97.0994 31.7259C97.0994 33.0352 96.9179 33.5681 98.7829 33.5681C103.905 33.5681 104.663 31.2915 104.95 31.2915C105.104 31.2915 105.129 31.5102 105.129 31.5534C105.129 32.3482 104.556 33.1276 104.018 33.7006C103.311 34.4985 102.826 34.4554 101.843 34.4554C100.157 34.4554 98.4731 34.3168 96.7865 34.363C95.8978 34.3876 94.9716 34.4554 94.0798 34.4554C93.8795 34.4554 93.7481 34.4092 93.7481 34.2336C93.7919 33.9656 94.0109 34.0087 94.7244 33.6575C95.3001 33.3895 95.344 32.7672 95.344 31.7259V20.506C95.344 19.3569 93.4821 19.5141 93.4821 19.0674C93.4821 18.824 93.6354 18.7809 93.9264 18.7809C94.3896 18.7809 95.078 18.8702 96.1638 18.8702C97.428 18.8702 97.9631 18.7809 98.2979 18.7809C98.5795 18.7809 98.7141 18.824 98.7141 19.092C98.7141 19.6034 97.0994 19.0458 97.0994 20.9681V31.7259ZM72.6451 20.2195C72.6451 19.5572 73.1332 19.5572 73.8467 19.5572C76.3938 19.5572 78.4559 20.9681 78.4559 23.6514C78.4559 25.6477 77.126 26.7259 74.8668 26.7259C74.0657 26.7259 73.5995 26.5935 73.4211 26.5935C73.3116 26.5935 73.1989 26.6428 73.1989 26.7937C73.1989 27.1911 74.485 27.302 74.7072 27.302C79.4353 27.302 80.0987 23.9379 80.0987 23.0538C80.0987 19.7544 76.9727 18.7809 74.1502 18.7809C73.0894 18.7809 72.7327 18.8671 71.625 18.8671C70.3389 18.8671 69.5597 18.7809 69.3595 18.7809C69.1842 18.7809 69.0747 18.9349 69.0747 19.1136C69.0747 19.9084 70.8927 18.5621 70.8927 21.2177V31.8183C70.8927 34.2767 69.1592 33.5897 69.1592 34.1874C69.1592 34.3876 69.3814 34.4554 69.5159 34.4554C70.1605 34.4554 70.8928 34.363 71.9379 34.363C73.2427 34.363 73.5744 34.4554 74.3348 34.4554C74.8856 34.4554 74.9763 34.3445 74.9763 34.1874C74.9763 33.4357 72.6451 34.5879 72.6451 31.3993V20.2195ZM49.821 20.6847C49.796 19.0674 48.0218 19.5141 48.0218 19.0273C48.0218 18.824 48.0687 18.7809 48.2439 18.7809C49.0638 18.7809 49.8617 18.8702 50.6847 18.8702C51.37 18.8702 52.0584 18.7809 52.7499 18.7809C53.1004 18.7809 53.1692 18.824 53.1692 19.0027C53.1692 19.5356 51.5734 19.0273 51.5734 20.6847V32.5731C51.5734 34.0765 53.5447 33.5681 53.5447 34.2336C53.5447 34.3876 53.479 34.4554 53.1004 34.4554C52.5935 34.4554 51.6391 34.363 50.6847 34.363C49.3329 34.363 48.8635 34.4554 48.5537 34.4554C48.1532 34.4554 48.0906 34.3445 48.0906 34.1196C48.0906 33.4757 49.821 34.2151 49.821 32.0155V20.6847Z" fill="white"/>
</g>
<defs>
<clipPath id="clip0_1035_81778">
<rect width="172" height="63" fill="white" transform="translate(4 3)"/>
</clipPath>
</defs>
</svg>
